<svg height="413" viewBox="0 0 441.19 95.39" width="1920" xmlns="http://www.w3.org/2000/svg"><path d="m2.8 40.61a16.3 16.3 0 0 0 14.49 25.25h12.71l9.45-16.64-31.45.01z" fill="#f5a800"/><path d="m21.31 67.71a16.3 16.3 0 0 0 29.12.07l6.31-11-9.69-16.5-15.68 27.26z" fill="#f5a800"/><path d="m54 65.41a16.32 16.32 0 0 0 14.61-25.19l-6.4-11-19.13.13 15.79 27.26z" fill="#f5a800"/><path d="m68.25 35.9a16.31 16.31 0 0 0 -14.5-25.26h-12.7l-9.45 16.69 31.48-.06z" fill="#f5a800"/><path d="m49.84 9a16.31 16.31 0 0 0 -29.12-.08l-6.31 11.08 9.69 16.5 15.68-27.33z" fill="#f5a800"/><path d="m17.26 11.3a16.31 16.31 0 0 0 -14.63 25.18l6.4 11 19.14-.14-15.79-27.24z" fill="#f5a800"/><g fill="#3b4444"><rect height="14.84" rx=".74" width="2.73" x="98.74" y="80.2"/><path d="m122.72 80.2a.74.74 0 0 0 -.72.8v9.39l-6.83-9.82a.76.76 0 0 0 -.61-.32h-1.56a.75.75 0 0 0 -.74.75v13.31a.74.74 0 0 0 .74.74h1.24a.75.75 0 0 0 .75-.74v-9.39l6.82 9.81a.74.74 0 0 0 .61.32h1.58a.74.74 0 0 0 .74-.74v-13.31a.75.75 0 0 0 -.74-.75z"/><path d="m133.76 84.27c0 3.28 2.52 4.06 4.35 4.64s2.54.91 2.54 2c0 1.3-1.14 1.88-2.27 1.88a2.62 2.62 0 0 1 -2.38-1.33.77.77 0 0 0 -.48-.35.76.76 0 0 0 -.57.11l-1.19.79a.76.76 0 0 0 -.32.48.76.76 0 0 0 .13.57 5.72 5.72 0 0 0 4.94 2.33c2.43 0 4.89-1.55 4.89-4.5 0-3.2-2.46-3.94-4.25-4.49s-2.63-.91-2.63-2.13c0-1.7 1.88-1.79 2.25-1.79a2.26 2.26 0 0 1 2 1 .73.73 0 0 0 1 .17l1.08-.77a.77.77 0 0 0 .3-.49.74.74 0 0 0 -.14-.56 5.11 5.11 0 0 0 -4.24-2c-2.5 0-5 1.51-5 4.4"/><path d="m161.35 80.2a.75.75 0 0 0 -.74.75v7.93c0 3.89-2.17 3.89-2.88 3.89s-2.88 0-2.88-3.89v-7.88a.75.75 0 0 0 -.74-.75h-1.25a.75.75 0 0 0 -.74.75v8.24c0 3.88 2.09 6.2 5.61 6.2s5.61-2.32 5.61-6.2v-8.24a.75.75 0 0 0 -.74-.75z"/><path d="m177.55 82.82c1.57 0 2.39.57 2.39 1.63s-.82 1.64-2.39 1.64h-1.9v-3.27zm-3.89-2.62a.75.75 0 0 0 -.74.75v13.36a.74.74 0 0 0 .74.74h1.25a.74.74 0 0 0 .74-.74v-5.6h1.16l3.54 6a.73.73 0 0 0 .63.36h1.42a.74.74 0 0 0 .63-1.13l-3.38-5.57a3.84 3.84 0 0 0 3-3.9c0-1.58-.72-4.25-5.5-4.25z"/><path d="m197 84.23c.67 1.62 1.46 3.54 1.93 4.66h-3.93c.48-1.13 1.29-3 2-4.66m-.57-4a.74.74 0 0 0 -.68.45l-5.82 13.32a.75.75 0 0 0 .67 1h1.31a.75.75 0 0 0 .68-.45l1.32-3.1h6.09c.28.7 1.26 3.09 1.26 3.09a.74.74 0 0 0 .69.46h1.39a.74.74 0 0 0 .62-.33.76.76 0 0 0 .04-.67l-5.6-13.34a.74.74 0 0 0 -.68-.46z"/><path d="m222.09 80.2a.76.76 0 0 0 -.75.75v9.39l-6.81-9.82a.78.78 0 0 0 -.61-.32h-1.61a.75.75 0 0 0 -.74.75v13.36a.74.74 0 0 0 .74.74h1.25a.74.74 0 0 0 .74-.74v-9.39l6.82 9.81a.75.75 0 0 0 .61.32h1.6a.74.74 0 0 0 .74-.74v-13.31a.75.75 0 0 0 -.74-.75z"/><path d="m231.8 87.63a7.45 7.45 0 0 0 7.65 7.76 6.5 6.5 0 0 0 5.55-2.74.74.74 0 0 0 -.15-1l-1-.77a.69.69 0 0 0 -.57-.14.74.74 0 0 0 -.5.32 4 4 0 0 1 -3.32 1.74c-2.94 0-4.92-2.06-4.92-5.14s2-5.15 4.92-5.15a3.51 3.51 0 0 1 3 1.48.75.75 0 0 0 .51.33.8.8 0 0 0 .58-.17l1-.85a.73.73 0 0 0 .1-1 6.25 6.25 0 0 0 -5.18-2.37 7.45 7.45 0 0 0 -7.65 7.76"/><path d="m253.88 80.2a.75.75 0 0 0 -.74.75v13.36a.74.74 0 0 0 .74.74h8.47a.74.74 0 0 0 .74-.74v-1.13a.75.75 0 0 0 -.74-.75h-6.49v-3.72h5.75a.75.75 0 0 0 .75-.74v-1.14a.75.75 0 0 0 -.75-.74h-5.75v-3.27h6.19a.74.74 0 0 0 .74-.74v-1.08a.75.75 0 0 0 -.74-.75z"/><path d="m281.91 87.63a7.44 7.44 0 0 0 7.64 7.76 6.5 6.5 0 0 0 5.56-2.74.74.74 0 0 0 -.14-1l-1-.77a.75.75 0 0 0 -1.07.18 4.07 4.07 0 0 1 -3.33 1.74c-2.94 0-4.92-2.06-4.92-5.14s2-5.15 4.92-5.15a3.49 3.49 0 0 1 3 1.48.77.77 0 0 0 .52.33.83.83 0 0 0 .58-.17l1-.85a.74.74 0 0 0 .11-1 6.28 6.28 0 0 0 -5.19-2.37 7.44 7.44 0 0 0 -7.64 7.76"/><path d="m303.92 87.63c0-3.08 2-5.15 4.92-5.15s4.92 2.07 4.92 5.15-2 5.14-4.92 5.14-4.92-2.06-4.92-5.14m-2.73 0a7.65 7.65 0 1 0 7.65-7.76 7.45 7.45 0 0 0 -7.65 7.76"/><path d="m335.53 80.2a.75.75 0 0 0 -.68.45s-3.18 7.33-4.19 9.64l-4.19-9.64a.73.73 0 0 0 -.68-.45h-1.86a.75.75 0 0 0 -.74.75v13.36a.74.74 0 0 0 .74.74h1.24a.74.74 0 0 0 .74-.74v-8.31l3.79 8.62a.75.75 0 0 0 .68.45h.55a.75.75 0 0 0 .68-.45s2.25-5.18 3.71-8.58v8.29a.74.74 0 0 0 .74.74h1.25a.74.74 0 0 0 .74-.74v-13.33a.75.75 0 0 0 -.74-.75z"/><path d="m352.47 82.82c.51 0 2.17.12 2.17 1.66 0 1.33-1.14 1.61-2.1 1.61h-2.08v-3.27zm-4-2.62a.75.75 0 0 0 -.74.75v13.36a.74.74 0 0 0 .74.74h1.25a.74.74 0 0 0 .74-.74v-5.6h2.15c2.84 0 4.75-1.7 4.75-4.23 0-3.15-2.61-4.28-5-4.28z"/><path d="m369 84.23 1.92 4.66h-3.92c.47-1.13 1.29-3 2-4.66m-.58-4a.75.75 0 0 0 -.68.45l-5.85 13.32a.73.73 0 0 0 .06.7.75.75 0 0 0 .62.34h1.3a.73.73 0 0 0 .68-.45l1.33-3.1h6.12c.29.7 1.26 3.09 1.26 3.09a.75.75 0 0 0 .69.46h1.4a.74.74 0 0 0 .62-.33.76.76 0 0 0 .03-.71l-5.62-13.36a.76.76 0 0 0 -.69-.46z"/><path d="m392.91 80.2a.75.75 0 0 0 -.74.75v9.39c-1.84-2.66-6.82-9.82-6.82-9.82a.78.78 0 0 0 -.61-.32h-1.6a.75.75 0 0 0 -.74.75v13.36a.74.74 0 0 0 .74.74h1.25a.74.74 0 0 0 .74-.74v-9.39l6.87 9.81a.73.73 0 0 0 .6.32h1.61a.74.74 0 0 0 .74-.74v-13.31a.75.75 0 0 0 -.74-.75z"/><rect height="14.84" rx=".74" width="2.73" x="403.97" y="80.2"/><path d="m415.69 80.2a.75.75 0 0 0 -.69.8v13.31a.74.74 0 0 0 .74.74h8.48a.74.74 0 0 0 .74-.74v-1.13a.75.75 0 0 0 -.74-.75h-6.49v-3.72h5.75a.74.74 0 0 0 .74-.74v-1.14a.74.74 0 0 0 -.74-.74h-5.75v-3.27h6.19a.74.74 0 0 0 .74-.74v-1.08a.75.75 0 0 0 -.74-.75z"/><path d="m431.58 84.27c0 3.28 2.51 4.06 4.35 4.64s2.53.91 2.53 2c0 1.3-1.13 1.88-2.26 1.88a2.64 2.64 0 0 1 -2.42-1.31.73.73 0 0 0 -.47-.35.79.79 0 0 0 -.58.11l-1.18.79a.72.72 0 0 0 -.32.48.76.76 0 0 0 .12.57 5.73 5.73 0 0 0 4.94 2.33c2.44 0 4.9-1.55 4.9-4.5 0-3.2-2.46-3.94-4.26-4.49s-2.63-.91-2.63-2.13c0-1.7 1.88-1.79 2.26-1.79a2.25 2.25 0 0 1 2 1 .75.75 0 0 0 .48.3.74.74 0 0 0 .56-.13l1.07-.77a.83.83 0 0 0 .31-.49.8.8 0 0 0 -.15-.56 5.09 5.09 0 0 0 -4.23-2c-2.5 0-5 1.51-5 4.4"/><path d="m99.81 52.65a1.1 1.1 0 0 1 1.6.16 13.14 13.14 0 0 0 10.35 4.65c4.66 0 10.42-3 10.42-8.72 0-12-25.78-4.57-25.78-25 0-6.14 5.17-14.63 17.73-14.63 5.24 0 10.28 1 14.12 4.92a1.26 1.26 0 0 1 .26 1.69l-4.43 4a1 1 0 0 1 -1.3 0s-4.59-4-8.65-4c-7.83 0-10.2 4.73-10.2 8 0 13.22 25.78 5.31 25.78 24.15 0 10.12-8.12 16.18-18.17 16.18-11.67 0-16-6.73-16-6.73a.66.66 0 0 1 0-1.08s3.6-3.09 4.31-3.65"/><path d="m154.78 11.35a.87.87 0 0 1 .86-.87h32a.87.87 0 0 1 .86.87v4.91a.87.87 0 0 1 -.86.87h-24.91a.87.87 0 0 0 -.86.87v13.85a.86.86 0 0 0 .86.86h23.09a.86.86 0 0 1 .86.87v4.92a.86.86 0 0 1 -.86.86h-23.09a.87.87 0 0 0 -.86.87v15a.87.87 0 0 0 .86.87h26.27a.87.87 0 0 1 .86.87v4.91a.87.87 0 0 1 -.86.87h-33.36a.87.87 0 0 1 -.86-.87z"/><path d="m249.41 21.05s-.63 1-1.79-.25a16.27 16.27 0 0 0 -11.8-5c-11.74 0-19.5 9.38-19.5 21.27 0 11 7.31 20.39 19.5 20.39a16.6 16.6 0 0 0 12.71-5.78c1.25-1.37 2.09-.38 2.09-.38l4.16 3.13a.81.81 0 0 1 .13 1.18 27.05 27.05 0 0 1 -19.23 8.5c-16.63 0-26.89-13.89-26.89-27 0-16.25 11.15-27.92 27.26-27.92 12.8 0 17.61 7.62 17.61 7.62a.61.61 0 0 1 0 1z"/><path d="m281 10.48a.88.88 0 0 1 .88.87v30.32c0 6.73 3.24 15.79 13.14 15.79s13.11-8.46 13.11-14.92v-31.19a.87.87 0 0 1 .86-.87h5.36a.87.87 0 0 1 .87.87v31.43c0 13.26-8.79 21.33-20.24 21.33s-20.24-8.35-20.24-20.47v-32.29a.87.87 0 0 1 .87-.87z"/><path d="m345.76 32.66a.87.87 0 0 0 .87.87h7.57c5.07 0 12.1-1.33 12.1-8.42s-5.61-8.43-11.23-8.43h-8.44a.88.88 0 0 0 -.87.88zm-7.09-21.31a.87.87 0 0 1 .87-.87h16.66c14.62 0 17.63 8.05 17.63 14.63a14 14 0 0 1 -12.83 13.81l14.37 23.08c.25.41.06.74-.41.74h-7.13a1.69 1.69 0 0 1 -1.3-.75l-12.43-21.51a1.67 1.67 0 0 0 -1.3-.75h-6.17a.87.87 0 0 0 -.87.87v21.31a.87.87 0 0 1 -.86.87h-5.36a.87.87 0 0 1 -.87-.87z"/><path d="m424.41 43.64a.54.54 0 0 0 .54-.8l-9.1-22.4a3.2 3.2 0 0 0 -.4-.8 3.2 3.2 0 0 0 -.4.8l-9.24 22.4a.54.54 0 0 0 .53.8zm-12.19-32.36a1.45 1.45 0 0 1 1.22-.8h4.68a1.45 1.45 0 0 1 1.22.8l21.66 50.72a.53.53 0 0 1 -.52.8h-6.48a1.39 1.39 0 0 1 -1.19-.81l-4.6-11.32a1.39 1.39 0 0 0 -1.19-.8h-23.19a1.41 1.41 0 0 0 -1.19.81l-4.52 11.32a1.38 1.38 0 0 1 -1.19.81h-6.54a.52.52 0 0 1 -.52-.79z"/></g></svg>