<svg xmlns="http://www.w3.org/2000/svg" viewBox="0 0 986.17 247.45" fill="#1854a6">
  <defs/>
  <title>Alside</title>
  <path d="M323.09,51.85h43.34V188.38c2.17.15,3.61.35,5.06.34,7.83,0,15.66-.07,23.49-.2,6-.11,11.07-1,14.35,7s12.46,10,20.53,11.67a75,75,0,0,0,37-2,23.71,23.71,0,0,0,3.71-1.48c5.32-2.62,9.84-6,9.48-12.73s-5.24-10-11-11.27a189.58,189.58,0,0,0-22.19-3c-15.73-1.45-31.48-2.59-47.21-4a29.94,29.94,0,0,1-7.19-2c-26.6-9.44-32.37-42.39-10.7-61,10.55-9.06,23.33-12.54,36.69-14.32,19.75-2.61,39.53-3.43,59.09,1.37a73.49,73.49,0,0,1,15.81,6c12.34,6.31,18.87,15.78,21.42,30.79-5.56,0-11,0-16.33,0-6.67,0-13.34,0-20-.26-1.5-.06-4-1.08-4.25-2.14-2.45-9-9.14-12.83-17.32-14.68-11.9-2.69-23.84-2.7-35.47,1.43a23.24,23.24,0,0,0-8,4.86c-6,5.7-4.84,14.32,2.67,17.73a45.77,45.77,0,0,0,15.3,4.09c12.28.87,24.63.72,36.94,1.24,11.91.5,23.5,2.59,34.06,8.57a39.23,39.23,0,0,1,18.51,22.85V102.29h41.69V146.1l1.16.64c6.52-26.87,24.06-42.78,49.64-50s48.57-.83,69.48,16.15V50.25h42.3v89.12l1,.28a5.38,5.38,0,0,0,.84-1.29c6.38-21.65,21-35.56,41.62-43.38a106.6,106.6,0,0,1,64.84-3.73c29.21,7.3,49.56,32.41,52.61,64.07.33,3.47.54,7,.88,11.23H768.86c-.72,6.07,1.44,10.54,4.31,14.58,8.46,11.88,20.55,16.34,34.67,16.35l184,.11h6.51v30.95c-2.1.12-3.86.29-5.62.29q-93,0-186,0c-16.85,0-33.23-2.54-48.33-10.52-15.49-8.19-25.79-20.74-30.69-37.63-.27-1-.58-1.91-.91-2.85,0-.13-.25-.21-1.1-.89v50.19H683.39V209.55c-20.64,21.31-45.38,24.29-71.14,17.85-27-6.73-42.61-25.73-49.6-52.6v52.51H521.29v-36.1c-1.1,1.87-1.63,2.42-1.76,3.06C516.32,209.21,506.3,218.17,493,224c-20.37,8.87-42,9.86-63.75,9.11-13.4-.47-26.51-2.55-38.8-8.36-9.73-4.61-17.37-11.5-23.69-20.71v23.28H323.09Zm323.58,68.58c-24,.09-41.25,17.29-41.32,41.34-.07,22.71,16.7,38.69,40.62,38.72,23.43,0,41.33-17.51,41.22-40.4S670,120.35,646.67,120.43Zm122.71,22.69h73c.26-14-10.38-26.48-24.75-29.39a50.83,50.83,0,0,0-27.06,2.09C777.69,120.24,769.36,131,769.38,143.12Z" transform="translate(-12.16 -50.25)"/>
  <path d="M320,227.54c-17.35,0-34.13.09-50.9-.17-1.3,0-3-2.2-3.78-3.75-8.83-17.54-17.52-35.15-26.26-52.73a6.11,6.11,0,0,0-2.57-2.85v24.83h-6.38c-18.33.06-36.65.25-55,.09-3.95,0-5.81,1.2-7.37,4.86-8.08,19-16.31,37.92-24.85,56.7-7.89,17.34-19,32.09-37.9,38.26-27.37,8.91-53.23,6.61-74.74-14.34C11,259.6,6.81,228,19.18,201.83,30.64,177.6,50.59,164.27,76.36,161c18.4-2.34,37.2-1.7,55.83-1.93,4.83-.06,7.19-1.35,9.24-5.92C156,120.64,171,88.32,185.69,55.88c1.47-3.25,3.22-4.33,6.71-4.26,10.49.23,21,.15,31.49,0,2.56,0,4.15.51,5.48,3q44.55,84.9,89.29,169.71C319.1,225.24,319.43,226.13,320,227.54ZM122.7,194.2c-12.92-2.25-38.35-.27-49.1,4.82-17.76,8.4-22.9,17-20.55,34.8,1.4,10.57,7.31,17.15,17.45,20.1,12.6,3.67,25.08-1.67,32.47-15.12,4.86-8.84,8.36-18.44,12.43-27.71C117.85,205.51,120.24,199.91,122.7,194.2Zm84.43-87.89-22.24,52.15H233C224.38,141.06,216.07,124.34,207.13,106.31Z" transform="translate(-12.16 -50.25)"/>
  <path d="M521.48,50.63h40.83V87.17H521.48Z" transform="translate(-12.16 -50.25)"/>
</svg>