<svg xmlns="http://www.w3.org/2000/svg" version="1.1" viewBox="0 0 400 150.809">
  <g fillrule="evenodd" stroke="none">
    <path fill="#fff" d="M0 9.583c0 9.719.114 11.337.587 8.334.749-4.754 4.636-10.456 9.248-13.568C11.235 3.404 13.784 2 14.098 2c.064 0 .424-.144.8-.32.702-.327 2.603-.849 4.31-1.183C21.359.076 19.961 0 10.083 0H0v9.583M380.833.163c0 .09.169.199.375.243l1.542.324c2.041.428 4.474 1.317 5.75 2.101.137.085.662.392 1.167.682 4.437 2.556 9.083 8.701 9.755 12.904.464 2.899.578 1.407.578-7.584V0h-9.583c-6.154 0-9.584.059-9.584.163M78.417 2.348c-38.66.065-58.11.154-58.667.269C13.454 3.914 8.186 7.51 5.148 12.583c-1.503 2.511-2.331 4.864-2.639 7.5-.243 2.082-.245 108.779-.002 110.755.834 6.79 6.186 13.639 12.493 15.987 1.851.69 3.107 1.063 4.667 1.387l1.75.364 57.444.047c52.214.043 57.469.023 57.709-.216.429-.43.401-145.578-.028-145.923-.25-.2-8.601-.22-58.125-.136m-7.688 9.69c.127.202.079.553-.185 1.327-1.025 3.012-.316 4.648 3.078 7.098 1.821 1.315 4.298 3.107 5.746 4.158.982.713 2.149 1.558 2.594 1.879l1.215.878c.223.163 1.494 1.077 2.823 2.033 6.531 4.696 7.938 6.091 9.419 9.341.251.549.556 1.223.679 1.498 2.243 5.004.995 11.713-3.177 17.083a37.47 37.47 0 00-1.339 1.834c-.273.412-.78 1.125-1.126 1.583a62.738 62.738 0 00-1.706 2.336c-.367.519-1.095 1.518-1.619 2.221-1.055 1.412-1.114 1.495-3.131 4.349-1.632 2.309-1.926 2.495-2.712 1.709l-.513-.513.434-.634c1.428-2.087 1.571-5.962.313-8.444-.83-1.637-2.069-2.906-4.419-4.524a89.685 89.685 0 01-2.569-1.841 97.866 97.866 0 00-1.935-1.417 327.65 327.65 0 01-1.917-1.362 780.858 780.858 0 00-1.932-1.377 204.466 204.466 0 01-2.083-1.508 94.214 94.214 0 00-2.115-1.508c-2.46-1.677-6.213-6.178-6.22-7.46 0-.107-.118-.419-.261-.693-.144-.275-.373-.95-.51-1.5A214.68 214.68 0 0057.16 37c-.512-1.968.008-6.983.927-8.942.135-.289.246-.641.246-.782 0-.141.076-.303.17-.361.093-.057.284-.343.425-.635.449-.927.842-1.581 1.423-2.364.668-.901 1.82-2.47 2.752-3.749a627.243 627.243 0 012.98-4.061A47.74 47.74 0 0067 14.835c2.229-3.326 3.021-3.919 3.729-2.797m125.299 33.821c-1.151.165-3.813 1.151-4.611 1.709-2.089 1.458-4.417 3.918-4.417 4.667 0 .085-.101.274-.223.419-1.536 1.808-1.829 7.511-.564 10.929 3.118 8.421 15.089 10.971 21.495 4.579 1.03-1.027 1.035-1.008-.666-2.682-1.825-1.796-1.93-1.831-2.975-1.013-3.701 2.897-8.025 2.77-10.8-.317-4.064-4.52-1.728-12.239 3.982-13.161 2.482-.4 4.52.204 6.938 2.056.74.567.896.512 1.918-.671.447-.517 1.13-1.302 1.52-1.745.865-.985.871-1.118.087-1.806-2.917-2.562-7.093-3.621-11.684-2.964m23.863-.004c-7.879 1.133-12.767 9.885-9.854 17.645 3.095 8.243 13.817 10.923 20.886 5.221 1.786-1.441 1.786-1.435-.157-3.346-1.801-1.77-1.715-1.743-2.834-.912-2.055 1.526-3.431 2.037-5.479 2.037-5.897 0-9.376-6.677-6.266-12.028 2.378-4.094 7.612-4.779 11.696-1.532.918.73.923.728 1.969-.471l1.606-1.839c.898-1.024.891-1.117-.166-2.013-2.839-2.407-6.946-3.402-11.401-2.762m-49.781.603c-.217.344-.45.813-.518 1.042-.112.379-.386 1.03-1.019 2.417a208.15 208.15 0 00-1.24 2.916 135.35 135.35 0 01-1.247 2.917c-.13.275-.433.987-.674 1.583a76.28 76.28 0 01-.768 1.834 163.033 163.033 0 00-1.472 3.416c-.386.917-.802 1.892-.924 2.167a74.21 74.21 0 00-.666 1.583c-.5 1.222-.666 1.601-1.418 3.246-.757 1.654-.748 1.661 2.205 1.717 2.989.057 2.829.169 3.977-2.796 1.203-3.106.578-2.833 6.491-2.833h4.967l.431.512c.237.282.432.643.432.802 0 .159.11.434.244.612.135.178.248.436.252.574.004.137.191.625.417 1.083.225.458.412.917.415 1.019.024.874.587 1.064 3.152 1.064 3.352 0 3.273.083 2.218-2.341a306.613 306.613 0 01-1.525-3.575c-.381-.917-.845-2.004-1.031-2.417-.66-1.464-1.089-2.462-2.9-6.75a203.588 203.588 0 00-1.108-2.583l-.556-1.25c-1-2.248-2.245-5.229-2.245-5.377 0-.1-.194-.412-.431-.694l-.432-.513h-4.633l-.394.625m65.057-.302c-.314.207-.473 24.272-.164 24.849.162.303.358.328 2.514.328 3.26 0 2.983.367 2.983-3.951 0-4.437-.153-4.159 2.255-4.097 2.181.056 2.022-.04 3.415 2.06.634.956 1.215 1.813 1.292 1.905.161.193 2.004 2.921 2.367 3.503.337.542.548.575 3.609.578 3.323.003 3.696-.423 1.892-2.164-.047-.046-.744-1.059-1.548-2.25a239.316 239.316 0 00-2.111-3.084c-.934-1.321-.923-1.484.135-2.056 2.269-1.226 3.722-3.38 4.01-5.944.555-4.944-1.436-8.022-6.066-9.379-1.323-.387-14.053-.647-14.583-.298m24 .007c-.315.199-.475 24.261-.165 24.84.204.381 18.144.531 18.842.158.493-.264.493-4.392 0-4.655-.206-.11-2.61-.173-6.661-.173-7.455 0-6.683.313-6.683-2.707 0-2.899-.645-2.616 6.083-2.667l5.667-.042V56.25l-5.704-.044c-6.746-.052-6.077.263-6.009-2.829l.046-2.127 6.534-.083c4.538-.058 6.591-.141 6.722-.272.303-.303.149-4.53-.172-4.732-.336-.212-18.166-.211-18.5 0m22.333-.048c-.481.196-.495.554-.497 12.671L281 70.988l.352.189c.25.133 2.07.167 6.291.116 6.455-.079 6.75-.119 9.411-1.276 6.92-3.008 9.397-11.749 5.2-18.35-.53-.834-2.627-2.947-3.161-3.186-.189-.085-.71-.381-1.158-.66-2.282-1.416-3.91-1.685-10.602-1.752-3.071-.031-5.696-.011-5.833.046m26.183.115c-.287.346-.26 24.784.027 24.967.307.195 4.594.164 4.968-.036.453-.243.512-24.448.06-24.899-.361-.361-4.759-.388-5.055-.032m8.15-.109c-.444.17-.495.429-.497 2.554-.003 2.701-.335 2.492 3.937 2.492 2.127 0 3.581.065 3.641.163.056.089.096 4.507.09 9.818-.01 8.618.017 9.683.254 9.92.274.274 4.15.397 5.034.16l.375-.1v-9.553c0-5.804.063-9.721.162-9.981l.163-.427h3.591c4.248 0 3.868.271 3.823-2.737-.025-1.707-.072-2.017-.333-2.208-.311-.228-19.654-.324-20.24-.101m23 .042c-.327.207-.472 24.552-.149 24.941.241.29 18.289.345 18.827.057.293-.157.322-.368.322-2.328 0-2.758.721-2.5-6.983-2.5-6.096 0-6.345-.012-6.511-.322-.237-.443-.22-4.057.021-4.586l.194-.425h11.273l.093-.375c.051-.206.071-1.275.045-2.375l-.048-2-5.714-.044-5.713-.044-.167-.438c-.091-.241-.145-1.346-.12-2.456l.047-2.018 6.5-.083c3.575-.046 6.594-.144 6.708-.219.336-.217.289-4.344-.053-4.686-.307-.307-18.093-.401-18.572-.099m22.125.017c-.273.159-.291.936-.291 12.571v12.401l.579.108c1.572.295 11.968-.033 13.171-.415 6.244-1.986 9.492-6.157 9.482-12.178-.007-4.133-2.45-9.003-5.103-10.173-.209-.091-.717-.376-1.129-.631-2.368-1.465-4.797-1.864-11.298-1.858-3.166.003-5.23.07-5.411.175M59.967 50.4c.903.466 1.061.787.846 1.717-.4 1.734.096 2.548 2.675 4.383 1.905 1.356 9.174 6.618 10.17 7.362 5.34 3.99 6.22 11.316 2.024 16.843a95.58 95.58 0 00-1.265 1.718c-.367.511-.967 1.333-1.334 1.828a206.23 206.23 0 00-1.75 2.424c-1.343 1.889-1.488 1.978-2.26 1.389-.821-.626-.955-.933-.655-1.507.344-.661.309-1.315-.115-2.165-.38-.762-.72-1.047-4.386-3.677a882.59 882.59 0 01-4.292-3.095c-5.327-3.835-6.216-4.658-7.421-6.87-1.76-3.233-1.763-7.528-.009-10.833.421-.792 1.547-2.41 3.43-4.93.756-1.012 1.375-1.871 1.375-1.91 0-.179 2.209-2.91 2.354-2.91.089 0 .365.104.613.233m188.237 1.161c2.832 1.269 2.81 5.022-.037 6.326-.909.415-6.649.646-7.308.293-.428-.228-.571-6.401-.159-6.813.421-.422 6.48-.265 7.504.194m45.062-.061c7.237 2.447 6.832 13.128-.55 14.492-1.588.294-5.826.23-5.948-.089-.139-.361-.129-14.486.01-14.625.291-.291 5.498-.113 6.488.222m79.666 0c1.404.474 2.207.953 3.09 1.842 3.048 3.07 2.545 9.285-.932 11.518-1.751 1.125-2.818 1.342-6.257 1.272l-2.416-.049-.044-7.25c-.024-3.987-.007-7.343.037-7.458.146-.38 5.321-.282 6.522.125m-199.839 1.961c.096.067.389.722.649 1.456.26.733.575 1.521.699 1.75.411.758 1.529 3.746 1.45 3.874-.117.19-6.02.154-6.138-.037-.056-.089.173-.82.507-1.625.334-.804.791-1.912 1.016-2.462.226-.55.518-1.199.65-1.443.132-.243.241-.567.241-.719 0-.678.489-1.098.926-.794M216.5 86.67c-.412.086-.9.225-1.083.309-3.961 1.81-5.168 3.489-5.165 7.188.003 3.76 1.367 5.462 5.498 6.861 1.519.514 3.723 1.139 4.019 1.139.145 0 .538.121.872.27 2.506 1.112 2.859 1.444 2.859 2.684 0 2.984-5.783 3.056-9.893.124-1.272-.908-1.212-.937-3.261 1.584-1.303 1.602-1.291 1.655.654 2.957 7.825 5.238 18.083 2.334 18.083-5.119 0-4.455-1.962-6.223-8.91-8.027-1.056-.274-1.995-.558-2.088-.631-.093-.073-.447-.222-.788-.332-1.046-.336-1.796-1.495-1.565-2.415.605-2.41 5.146-2.419 8.664-.018.355.242.796.418.981.39.352-.053 1.853-2.015 2.491-3.256l.362-.705-.359-.383c-1.764-1.878-8.019-3.319-11.371-2.62m79.5.049c-1.585.369-3.123 1.226-4.233 2.359-2.911 2.969-2.55 8.411.703 10.607 1.223.825 4.895 2.126 7.197 2.549 3.285.604 4.585 3.245 2.293 4.658-1.881 1.16-5.714.432-8.717-1.657-1.255-.872-1.257-.871-3.056 1.348-1.556 1.92-1.521 1.684-.382 2.58 3.372 2.654 8.592 3.822 12.736 2.849 1.528-.358 1.679-.422 3.069-1.3 3.964-2.503 4.355-8.986.69-11.475-.394-.268-.816-.581-.937-.695-.121-.115-.309-.209-.417-.21-.108 0-.421-.118-.696-.262-.684-.357-1.973-.776-4.282-1.393-3.759-1.004-4.948-1.905-4.56-3.453.597-2.376 5.154-2.37 8.641.011.858.586 1.137.546 1.711-.243.269-.371.725-.993 1.013-1.382.287-.389.679-.999.871-1.357l.348-.65-.77-.548c-2.909-2.068-7.908-3.109-11.222-2.336m20.667 0c-3.977.927-6.086 3.539-6.081 7.531.005 4.181 1.626 5.733 7.831 7.495.733.209 1.578.425 1.878.48 4.809.891 4.693 5.173-.14 5.144-2.167-.012-5.489-1.176-6.322-2.215-.7-.874-1.392-.551-2.944 1.373-1.52 1.885-1.51 1.82-.399 2.679 7.973 6.16 19.512 2.992 18.96-5.206-.26-3.864-2.438-5.671-8.839-7.333-4.269-1.109-5.633-2.583-3.986-4.307 1.457-1.526 5.162-1.125 8.091.875.988.675 1.141.601 2.35-1.133 1.6-2.295 1.628-2.38.963-2.934-2.423-2.023-8.018-3.229-11.362-2.449m-154.828.437c-.301.563-.233 24.42.071 24.672.185.154 1.985.185 7.542.133 8.024-.075 8.019-.075 10.342-1.233 4.429-2.206 4.5-9.188.116-11.249-1.044-.49-1.036-.687.075-1.797 2.987-2.987 2.178-7.895-1.619-9.832-2.067-1.055-16.02-1.641-16.527-.694m23.479.134c-.349.918-.086 16.257.302 17.635 1.398 4.961 4.995 7.492 10.63 7.479 5.345-.012 8.889-2.33 10.432-6.821l.401-1.166v-17.5l-2.498-.047c-2.204-.041-2.524-.012-2.709.241-.16.219-.209 1.968-.209 7.49 0 7.85-.11 9.121-.895 10.364-2.194 3.475-7.715 2.946-9.42-.904l-.434-.978-.054-7.913c-.036-5.212-.114-7.986-.23-8.125-.127-.154-.857-.212-2.659-.212h-2.483l-.174.457m47.021-.134c-.263.492-.237 24.379.028 24.644.278.279 4.821.279 5.1 0 .212-.212.307-24.159.099-24.703-.17-.442-4.988-.388-5.227.059m9.762-.059c-.209.544-.113 24.491.099 24.703.253.253 4.512.277 4.978.027.311-.166.322-.427.322-7.656v-7.485l.435.226c.24.124.558.416.709.647.15.232 1.063 1.457 2.029 2.723l3.406 4.468a345.73 345.73 0 002.37 3.083c.396.504.776.993.844 1.086 1.174 1.602 2.146 2.792 2.385 2.92.403.216 4.093.206 4.5-.012.453-.242.512-24.28.06-24.732-.214-.214-.703-.262-2.671-.262h-2.409l-.174.459c-.113.297-.161 2.826-.136 7.222.021 3.721-.022 6.862-.095 6.982-.125.201-1.586-1.201-1.586-1.521 0-.061-.324-.512-.719-1.001a190.15 190.15 0 01-2.369-3.057c-.908-1.192-2.281-2.992-3.052-4a455.513 455.513 0 01-2.332-3.079c-1.54-2.063-1.396-1.993-4.136-1.999-1.998-.005-2.372.034-2.458.258m26.395.164c-.358.942-.206 24.371.16 24.566.444.238 18.244.238 18.688 0 .398-.212.494-4.035.114-4.542-.187-.25-.866-.283-6.756-.323-7.651-.053-6.863.243-6.866-2.575-.004-2.805-.584-2.553 5.884-2.556 6.724-.003 6.183.206 6.239-2.419.058-2.762.71-2.487-6.043-2.543l-5.762-.048-.173-.452c-.271-.708-.123-4.178.186-4.373.145-.092 2.895-.159 6.591-.16 7.454-.003 6.742.248 6.742-2.38 0-2.955 1.217-2.623-9.593-2.623h-9.249l-.162.428M93.941 91.434c.366.098.526.461 1.39 3.149.975 3.03 1.506 2.77-5.623 2.755-7.492-.016-6.556-.428-7.747 3.412l-.791 2.542c-.762 2.448.503 2.208-11.626 2.208H59.162l-.335-.542c-.183-.298-.374-.729-.424-.958-.049-.229-.374-1.317-.722-2.417a129.28 129.28 0 01-.823-2.685c-.105-.378-.347-.884-.537-1.125l-.345-.44h-6.219c-7.323 0-6.698.28-5.739-2.575.357-1.062.649-2.082.649-2.268 0-.186.184-.523.409-.748l.409-.409 24.049.003c13.227.001 24.211.045 24.407.098m80.642.606c2.111 1.114 2.066 3.61-.083 4.586-.631.286-5.644.509-6.758.3l-.575-.108v-2.401c0-2.106.035-2.423.291-2.582.48-.299 6.5-.126 7.125.205m1.286 9.953c2.339.852 2.152 4.142-.275 4.845-.927.268-7.37.414-7.973.18l-.463-.18.046-2.537c.045-2.486.054-2.538.426-2.627.754-.18 7.598.086 8.239.319m-129.702 8.514c1.199.19 2.572.69 3.569 1.299 4.179 2.556 4.456 8.816.514 11.649-.582.418-.478.785.346 1.218 5.62 2.955 5.571 10.178-.091 13.314-.226.125-.976.418-1.666.65l-1.256.421-8.636.065c-6.504.049-8.696.016-8.875-.133-.3-.248-.364-27.778-.066-28.334.199-.373 13.946-.499 16.161-.149m27.5 0c4.517.716 7.062 3.74 6.792 8.07-.125 2.004-1.382 4.199-2.898 5.061-.458.261-.143.663 1.074 1.368 4.999 2.896 4.712 10.291-.501 12.885-2.424 1.207-2.282 1.192-11.884 1.192h-8.667L57.5 125c-.046-7.746-.024-14.215.048-14.375.154-.344 14.047-.446 16.119-.118m27.5 0c6.804 1.078 9.363 8.864 4.213 12.818-.868.666-.81.782.905 1.785 2.325 1.36 3.452 3.559 3.362 6.562-.022.726.037 1.07.203 1.175.128.081.151.149.051.15-.1.002-.271.303-.381.67-.11.366-.265.666-.345.666-.08 0-.307.335-.506.745-.727 1.502-2.539 2.807-5.002 3.602l-1.25.403h-17.5l-.046-14c-.025-7.7-.005-14.168.045-14.375l.09-.375 7.539.002c4.349 0 7.997.073 8.622.172m-64.82 5.635c-.233.435-.239 5.103-.008 5.536.236.441 5.751.481 7.639.054 3.176-.717 3.705-4.04.855-5.375-1.305-.612-8.181-.786-8.486-.215m27.582-.047c-.421.421-.384 5.243.042 5.629.407.368 5.913.391 7.421.031 3.578-.855 3.725-4.497.227-5.657-1.162-.386-7.305-.388-7.69-.003m27.4.166c-.217.571-.209 5.008.01 5.417.221.412 5.893.474 7.532.082 2.109-.504 3.1-1.843 2.638-3.561-.493-1.828-2.015-2.366-6.697-2.366h-3.32l-.163.428m-54.954 11.261c-.263.267-.294 5.34-.036 5.822.238.445 7.285.488 9.182.056 3.284-.746 3.788-4.238.812-5.62-.935-.434-9.565-.658-9.958-.258m27.583-.016c-.451.274-.439 5.475.013 5.885.444.401 7.244.404 9.05.003 3.2-.71 3.726-4.286.826-5.613-.887-.405-9.291-.639-9.889-.275m27.417.016c-.278.282-.291 5.114-.015 5.72l.194.425h3.869c4.71 0 5.914-.2 6.91-1.147 1.482-1.41.993-3.789-.971-4.718-.957-.452-9.579-.695-9.987-.28M0 141.25v9.417h9.583c9.359 0 10.802-.082 8.625-.489-.527-.099-1.183-.261-1.458-.36a23.97 23.97 0 00-1.283-.398c-2.251-.628-6.338-3.126-8.517-5.204-3.181-3.035-5.804-7.625-6.362-11.133C.114 130.101 0 131.689 0 141.25m112.089-7.625c-.219 1.495-1.589 1.524-1.589.034v-.826h1.705l-.116.792m287.411.5c-.849 4.288-4.218 9.226-8.417 12.34-2.021 1.499-5.873 3.218-8.291 3.701-2.109.42-.806.501 8.125.501H400v-8.75c0-8.604-.083-9.895-.5-7.792"/>
    <path fill="#046393" d="M20.167.155c0 .085-.432.239-.959.342-1.707.334-3.608.856-4.31 1.183-.376.176-.736.32-.8.32-.314 0-2.863 1.404-4.263 2.349C5.172 7.496 1.228 13.329.571 18.05c-.061.44-.215.903-.341 1.03-.345.344-.345 112.496 0 112.84.126.127.28.59.342 1.03.278 1.982 1.488 4.874 3.035 7.25 2.25 3.457 5.249 6.074 9.273 8.096.992.498 2.156 1.004 2.587 1.124.43.12 1.008.3 1.283.398.275.099.931.261 1.458.36.527.098.959.249.959.334 0 .095 69.78.155 181.333.155s181.333-.06 181.333-.155c0-.085.432-.241.959-.346 2.079-.415 5.198-1.717 7.273-3.036 4.615-2.934 8.501-8.29 9.435-13.005.105-.527.26-.958.345-.958.235 0 .207-115.455-.028-115.533-.1-.034-.254-.472-.342-.973-.794-4.548-5.252-10.524-9.808-13.148-.505-.29-1.03-.597-1.167-.681-.512-.313-3.194-1.499-3.391-1.499-.112 0-.614-.143-1.115-.318a10.98 10.98 0 00-1.877-.437c-.532-.065-1.07-.222-1.197-.348-.277-.277-360.753-.352-360.753-.075m116.666 75.276c0 66.099-.024 72.736-.263 72.976-.24.239-5.495.259-57.709.216l-57.444-.047-1.75-.364c-1.56-.324-2.816-.697-4.667-1.387-6.307-2.348-11.659-9.197-12.493-15.987-.243-1.976-.241-108.673.002-110.755.749-6.42 5.069-12.313 11.292-15.402 2.075-1.03 3.748-1.611 5.949-2.064 1.44-.297 116.425-.428 116.792-.133.277.223.291 3.897.291 72.947m-68-63.084c-.897 1.173-1.494 1.983-1.833 2.488-.138.205-.55.777-.917 1.271-.694.935-1.838 2.493-2.98 4.061a660.01 660.01 0 01-2.752 3.749 13.577 13.577 0 00-1.423 2.364c-.141.292-.332.578-.425.635-.094.058-.17.22-.17.361s-.111.493-.246.782c-.919 1.959-1.439 6.974-.927 8.942.083.321.264 1.033.401 1.584.137.55.366 1.225.51 1.5.143.274.261.586.261.693.007 1.282 3.76 5.783 6.22 7.46a94.214 94.214 0 012.115 1.508c.687.504 1.625 1.183 2.083 1.508.458.325 1.328.945 1.932 1.377a327.65 327.65 0 001.917 1.362c.45.317 1.32.955 1.935 1.417.614.463 1.77 1.291 2.569 1.841 2.35 1.618 3.589 2.887 4.419 4.524 1.258 2.482 1.115 6.357-.313 8.444l-.434.634.513.513c.786.786 1.08.6 2.712-1.709 2.017-2.854 2.076-2.937 3.131-4.349.524-.703 1.252-1.702 1.619-2.221a62.738 62.738 0 011.706-2.336c.346-.458.853-1.171 1.126-1.583a37.47 37.47 0 011.339-1.834c2.06-2.652 2.853-4.217 3.812-7.523.709-2.446.389-7.276-.635-9.56-.896-2-1.217-2.624-1.844-3.582-1.136-1.734-2.304-2.852-5.504-5.268A360.577 360.577 0 0086 29.411c-1.329-.956-2.6-1.87-2.823-2.033l-1.215-.878c-.445-.321-1.612-1.166-2.594-1.879a3490.885 3490.885 0 00-5.746-4.158c-2.355-1.7-2.747-2.166-3.28-3.891-.383-1.24-.364-1.543.202-3.207.403-1.184.327-1.474-.475-1.8-.473-.193-.505-.172-1.236.782m132.295 33.491c2.284.287 4.821 1.437 6.584 2.985.784.688.778.821-.087 1.806-.39.443-1.073 1.228-1.52 1.745-1.022 1.183-1.178 1.238-1.918.671-2.418-1.852-4.456-2.456-6.938-2.056-5.71.922-8.046 8.641-3.982 13.161 2.775 3.087 7.099 3.214 10.8.317 1.045-.818 1.15-.783 2.975 1.013 1.701 1.674 1.696 1.655.666 2.682-6.406 6.392-18.377 3.842-21.495-4.579-1.265-3.418-.972-9.121.564-10.929.122-.145.223-.334.223-.419 0-.749 2.328-3.209 4.417-4.667 2.129-1.488 6.06-2.187 9.711-1.73m23.826-.001c2.252.283 4.616 1.32 6.338 2.78 1.057.896 1.064.989.166 2.013l-1.606 1.839c-1.046 1.199-1.051 1.201-1.969.471-4.084-3.247-9.318-2.562-11.696 1.532-3.11 5.351.369 12.028 6.266 12.028 2.048 0 3.424-.511 5.479-2.037 1.119-.831 1.033-.858 2.834.912 1.943 1.911 1.943 1.905.157 3.346-8.795 7.094-21.756 1.123-21.756-10.023 0-8.347 6.907-13.974 15.787-12.861m-49.385.509c.237.282.431.594.431.694 0 .148 1.245 3.129 2.245 5.377l.556 1.25c.184.412.682 1.575 1.108 2.583 1.811 4.288 2.24 5.286 2.9 6.75.186.413.65 1.5 1.031 2.417.382.916 1.068 2.525 1.525 3.575 1.055 2.424 1.134 2.341-2.218 2.341-2.565 0-3.128-.19-3.152-1.064-.003-.102-.19-.561-.415-1.019-.226-.458-.413-.946-.417-1.083-.004-.138-.117-.396-.252-.574-.134-.178-.244-.453-.244-.612 0-.159-.195-.52-.432-.802l-.431-.512h-4.967c-5.913 0-5.288-.273-6.491 2.833-1.148 2.965-.988 2.853-3.977 2.796-2.953-.056-2.962-.063-2.205-1.717.752-1.645.918-2.024 1.418-3.246a74.21 74.21 0 01.666-1.583c.122-.275.538-1.25.924-2.167.696-1.651.831-1.964 1.472-3.416a76.28 76.28 0 00.768-1.834c.241-.596.544-1.308.674-1.583.13-.275.691-1.587 1.247-2.917a208.15 208.15 0 011.24-2.916c.633-1.387.907-2.038 1.019-2.417.068-.229.301-.698.518-1.042l.394-.625h4.633l.432.513m74.181.108c4.63 1.357 6.621 4.435 6.066 9.379-.288 2.564-1.741 4.718-4.01 5.944-1.058.572-1.069.735-.135 2.056.357.504 1.306 1.892 2.111 3.084.804 1.191 1.501 2.204 1.548 2.25 1.804 1.741 1.431 2.167-1.892 2.164-3.061-.003-3.272-.036-3.609-.578-.363-.582-2.206-3.31-2.367-3.503-.077-.092-.658-.949-1.292-1.905-1.393-2.1-1.234-2.004-3.415-2.06-2.408-.062-2.255-.34-2.255 4.097 0 4.318.277 3.951-2.983 3.951-2.156 0-2.352-.025-2.514-.328-.309-.577-.15-24.642.164-24.849.53-.349 13.26-.089 14.583.298m27.917-.291c.321.202.475 4.429.172 4.732-.131.131-2.184.214-6.722.272l-6.534.083-.046 2.127c-.068 3.092-.737 2.777 6.009 2.829l5.704.044v4.667l-5.667.042c-6.728.051-6.083-.232-6.083 2.667 0 3.02-.772 2.707 6.683 2.707 4.051 0 6.455.063 6.661.173.493.263.493 4.391 0 4.655-.698.373-18.638.223-18.842-.158-.31-.579-.15-24.641.165-24.84.334-.211 18.164-.212 18.5 0m16.666.303c1.816.437 2.593.729 3.602 1.355.448.279.969.575 1.158.66.534.239 2.631 2.352 3.161 3.186 4.197 6.601 1.72 15.342-5.2 18.35-2.661 1.157-2.956 1.197-9.411 1.276-4.221.051-6.041.017-6.291-.116l-.352-.189.003-12.202c.002-12.117.016-12.475.497-12.671.696-.285 11.412.009 12.833.351m18.405-.204c.452.451.393 24.656-.06 24.899-.374.2-4.661.231-4.968.036-.287-.183-.314-24.621-.027-24.967.296-.356 4.694-.329 5.055.032m23.335-.04c.261.191.308.501.333 2.208.045 3.008.425 2.737-3.823 2.737h-3.591l-.163.427c-.099.26-.162 4.177-.162 9.981v9.553l-.375.1c-.884.237-4.76.114-5.034-.16-.237-.237-.264-1.302-.254-9.92.006-5.311-.034-9.729-.09-9.818-.06-.098-1.514-.163-3.641-.163-4.272 0-3.94.209-3.937-2.492.002-2.125.053-2.384.497-2.554.586-.223 19.929-.127 20.24.101m21.332.04c.342.342.389 4.469.053 4.686-.114.075-3.133.173-6.708.219l-6.5.083-.047 2.018c-.025 1.11.029 2.215.12 2.456l.167.438 5.713.044 5.714.044.048 2c.026 1.1.006 2.169-.045 2.375l-.093.375h-11.273l-.194.425c-.241.529-.258 4.143-.021 4.586.166.31.415.322 6.511.322 7.704 0 6.983-.258 6.983 2.5 0 1.96-.029 2.171-.322 2.328-.538.288-18.586.233-18.827-.057-.323-.389-.178-24.734.149-24.941.479-.302 18.265-.208 18.572.099m15.797.069c1.967.379 3.39.867 4.465 1.532.412.255.92.54 1.129.631 2.653 1.17 5.096 6.04 5.103 10.173.01 6.021-3.238 10.192-9.482 12.178-1.203.382-11.599.71-13.171.415l-.579-.108V58.751c0-11.635.018-12.412.291-12.571.59-.343 10.302-.224 12.244.151M58.096 51.586c-.603.781-1.096 1.451-1.096 1.491 0 .039-.619.898-1.375 1.91-1.883 2.52-3.009 4.138-3.43 4.93-1.754 3.305-1.751 7.6.009 10.833 1.205 2.212 2.094 3.035 7.421 6.87a882.59 882.59 0 004.292 3.095c3.666 2.63 4.006 2.915 4.386 3.677.424.85.459 1.504.115 2.165-.3.574-.166.881.655 1.507.772.589.917.5 2.26-1.389a206.23 206.23 0 011.75-2.424c.367-.495.967-1.317 1.334-1.828a95.58 95.58 0 011.265-1.718c4.196-5.527 3.316-12.853-2.024-16.843-.996-.744-8.265-6.006-10.17-7.362-2.579-1.835-3.075-2.649-2.675-4.383.215-.93.057-1.251-.846-1.717-.677-.35-.693-.34-1.871 1.186m182.604-.219c-.412.412-.269 6.585.159 6.813.659.353 6.399.122 7.308-.293 2.847-1.304 2.869-5.057.037-6.326-1.024-.459-7.083-.616-7.504-.194m46.078-.089c-.139.139-.149 14.264-.01 14.625.122.319 4.36.383 5.948.089 7.382-1.364 7.787-12.045.55-14.492-.99-.335-6.197-.513-6.488-.222m79.632.097c-.044.115-.061 3.471-.037 7.458l.044 7.25 2.416.049c3.439.07 4.506-.147 6.257-1.272 4.139-2.658 3.834-10.277-.507-12.661-1.765-.97-7.881-1.586-8.173-.824m-194.071 2.281a1.544 1.544 0 00-.172.599c0 .152-.109.476-.241.719-.132.244-.424.893-.65 1.443-.225.55-.682 1.658-1.016 2.462-.334.805-.563 1.536-.507 1.625.118.191 6.021.227 6.138.037.079-.128-1.039-3.116-1.45-3.874-.124-.229-.439-1.017-.699-1.75-.579-1.632-1.001-2.011-1.403-1.261m51.078 33.414c1.603.518 3.958 1.692 4.454 2.22l.359.383-.362.705c-.638 1.241-2.139 3.203-2.491 3.256-.185.028-.626-.148-.981-.39-3.518-2.401-8.059-2.392-8.664.018-.231.92.519 2.079 1.565 2.415.341.11.695.259.788.332.093.073 1.032.357 2.088.631 6.948 1.804 8.91 3.572 8.91 8.027 0 7.453-10.258 10.357-18.083 5.119-1.945-1.302-1.957-1.355-.654-2.957 2.049-2.521 1.989-2.492 3.261-1.584 4.11 2.932 9.893 2.86 9.893-.124 0-1.24-.353-1.572-2.859-2.684-.334-.149-.727-.27-.872-.27-.296 0-2.5-.625-4.019-1.139-4.131-1.399-5.495-3.101-5.498-6.861-.003-3.699 1.204-5.378 5.165-7.188 1.377-.63 5.932-.578 8 .091m79.666.002c1.588.516 3.084 1.233 4.139 1.983l.77.548-.348.65c-.192.358-.584.968-.871 1.357-.288.389-.744 1.011-1.013 1.382-.574.789-.853.829-1.711.243-3.487-2.381-8.044-2.387-8.641-.011-.388 1.548.801 2.449 4.56 3.453 2.309.617 3.598 1.036 4.282 1.393.275.144.588.262.696.262.108.001.296.095.417.21.121.114.543.427.937.695 3.665 2.489 3.274 8.972-.69 11.475-1.39.878-1.541.942-3.069 1.3-4.144.973-9.364-.195-12.736-2.849-1.139-.896-1.174-.66.382-2.58 1.799-2.219 1.801-2.22 3.056-1.348 3.003 2.089 6.836 2.817 8.717 1.657 2.292-1.413.992-4.054-2.293-4.658-2.302-.423-5.974-1.724-7.197-2.549-3.253-2.196-3.614-7.638-.703-10.607 2.424-2.473 7.248-3.328 11.316-2.006m20.667-.001c1.578.511 3.518 1.461 4.279 2.097.665.554.637.639-.963 2.934-1.209 1.734-1.362 1.808-2.35 1.133-2.929-2-6.634-2.401-8.091-.875-1.647 1.724-.283 3.198 3.986 4.307 6.401 1.662 8.579 3.469 8.839 7.333.552 8.198-10.987 11.366-18.96 5.206-1.111-.859-1.121-.794.399-2.679 1.552-1.924 2.244-2.247 2.944-1.373.833 1.039 4.155 2.203 6.322 2.215 4.833.029 4.949-4.253.14-5.144-1.836-.34-5.114-1.44-6.462-2.168-4.866-2.628-4.412-10.074.767-12.57 2.346-1.131 6.376-1.315 9.15-.416m-147.376.106c5.386 1.375 7.267 6.848 3.611 10.505-1.111 1.11-1.119 1.307-.075 1.797 4.384 2.061 4.313 9.043-.116 11.249-2.323 1.158-2.318 1.158-10.342 1.233-5.557.052-7.357.021-7.542-.133-.304-.252-.372-24.109-.071-24.672.274-.512 12.518-.494 14.535.021m14.26-.132c.116.139.194 2.913.23 8.125l.054 7.913.434.978c1.705 3.85 7.226 4.379 9.42.904.785-1.243.895-2.514.895-10.364 0-5.522.049-7.271.209-7.49.185-.253.505-.282 2.709-.241l2.498.047v17.5l-.401 1.166c-1.543 4.491-5.087 6.809-10.432 6.821-5.635.013-9.232-2.518-10.63-7.479-.388-1.378-.651-16.717-.302-17.635l.174-.457h2.483c1.802 0 2.532.058 2.659.212m46.932.052c.208.544.113 24.491-.099 24.703-.279.279-4.822.279-5.1 0-.265-.265-.291-24.152-.028-24.644.239-.447 5.057-.501 5.227-.059m9.775.121c.233.205.842.934 1.354 1.62.512.685 1.561 2.07 2.332 3.079.771 1.008 2.144 2.808 3.052 4a190.15 190.15 0 002.369 3.057c.395.489.719.94.719 1.001 0 .32 1.461 1.722 1.586 1.521.073-.12.116-3.261.095-6.982-.025-4.396.023-6.925.136-7.222l.174-.459h2.409c1.968 0 2.457.048 2.671.262.452.452.393 24.49-.06 24.732-.407.218-4.097.228-4.5.012-.239-.128-1.211-1.318-2.385-2.92a85.373 85.373 0 00-.844-1.086 345.73 345.73 0 01-2.37-3.083l-3.406-4.468c-.966-1.266-1.879-2.491-2.029-2.723a2.235 2.235 0 00-.709-.647l-.435-.226v7.485c0 7.229-.011 7.49-.322 7.656-.466.25-4.725.226-4.978-.027-.212-.212-.308-24.159-.099-24.703.182-.475 4.682-.371 5.24.121m39.986-.062c.248.463.225 4.225-.027 4.477-.148.149-1.834.201-6.542.203-3.696.001-6.446.068-6.591.16-.309.195-.457 3.665-.186 4.373l.173.452 5.762.048c6.753.056 6.101-.219 6.043 2.543-.056 2.625.485 2.416-6.239 2.419-6.468.003-5.888-.249-5.884 2.556.003 2.818-.785 2.522 6.866 2.575 5.89.04 6.569.073 6.756.323.38.507.284 4.33-.114 4.542-.444.238-18.244.238-18.688 0-.366-.195-.518-23.624-.16-24.566l.162-.428h9.249c8.973 0 9.253.01 9.42.323M45.076 91.742c-.225.225-.409.562-.409.748 0 .186-.292 1.206-.649 2.268-.959 2.855-1.584 2.575 5.739 2.575h6.219l.345.44c.19.241.432.747.537 1.125.105.377.476 1.585.823 2.685.348 1.1.673 2.188.722 2.417.05.229.241.66.424.958l.335.542h10.382c12.129 0 10.864.24 11.626-2.208l.791-2.542c1.191-3.84.255-3.428 7.747-3.412 7.129.015 6.598.275 5.623-2.755-.864-2.688-1.024-3.051-1.39-3.149-.196-.053-11.18-.097-24.407-.098l-24.049-.003-.409.409m122.382.093c-.256.159-.291.476-.291 2.582v2.401l.575.108c1.114.209 6.127-.014 6.758-.3 2.149-.976 2.194-3.472.083-4.586-.625-.331-6.645-.504-7.125-.205m.172 9.839c-.372.089-.381.141-.426 2.627l-.046 2.537.463.18c.603.234 7.046.088 7.973-.18 2.427-.703 2.614-3.993.275-4.845-.641-.233-7.485-.499-8.239-.319m-137.624 8.982c-.298.556-.234 28.086.066 28.334.179.149 2.371.182 8.875.133l8.636-.065 1.256-.421c7.081-2.379 8.118-10.62 1.757-13.964-.824-.433-.928-.8-.346-1.218 3.942-2.833 3.665-9.093-.514-11.649-2.212-1.352-3.181-1.47-12.105-1.471-7.198-.002-7.458.009-7.625.321m27.542-.031c-.072.16-.094 6.629-.048 14.375l.083 14.083h8.667c9.602 0 9.46.015 11.884-1.192 5.213-2.594 5.5-9.989.501-12.885-1.217-.705-1.532-1.107-1.074-1.368 1.516-.862 2.773-3.057 2.898-5.061.27-4.33-2.275-7.354-6.792-8.07-2.072-.328-15.965-.226-16.119.118m27.368.083c-.05.207-.07 6.675-.045 14.375l.046 14h17.5l1.25-.403c2.463-.795 4.275-2.1 5.002-3.602.199-.41.426-.745.506-.745.08 0 .235-.3.345-.666.11-.367.281-.668.381-.67.1-.001.077-.069-.051-.15-.166-.105-.225-.449-.203-1.175.09-3.003-1.037-5.202-3.362-6.562-1.715-1.003-1.773-1.119-.905-1.785 3.424-2.629 3.556-8.143.258-10.829-2.473-2.015-3.352-2.16-13.093-2.161l-7.539-.002-.09.375m-40.083 5.649c2.85 1.335 2.321 4.658-.855 5.375-1.888.427-7.403.387-7.639-.054-.231-.433-.225-5.101.008-5.536.305-.571 7.181-.397 8.486.215m26.786-.259c3.498 1.16 3.351 4.802-.227 5.657-1.508.36-7.014.337-7.421-.031-.426-.386-.463-5.208-.042-5.629.385-.385 6.528-.383 7.69.003m27.577.064c3.445 1.064 3.231 4.748-.325 5.598-1.639.392-7.311.33-7.532-.082-.219-.409-.227-4.846-.01-5.417l.163-.428h3.32c2.834 0 3.475.048 4.384.329M46.333 127.78c2.976 1.382 2.472 4.874-.812 5.62-1.897.432-8.944.389-9.182-.056-.258-.482-.227-5.555.036-5.822.393-.4 9.023-.176 9.958.258m27.514.001c2.9 1.327 2.374 4.903-.826 5.613-1.806.401-8.606.398-9.05-.003-.452-.41-.464-5.611-.013-5.885.598-.364 9.002-.13 9.889.275m27.515.021c1.964.929 2.453 3.308.971 4.718-.996.947-2.2 1.147-6.91 1.147h-3.869l-.194-.425c-.276-.606-.263-5.438.015-5.72.408-.415 9.03-.172 9.987.28m9.138 5.857c0 1.49 1.37 1.461 1.589-.034l.116-.792H110.5v.826"/>
  </g>
</svg>