<?xml version="1.0" standalone="no"?>
<!DOCTYPE svg PUBLIC "-//W3C//DTD SVG 20010904//EN"
 "http://www.w3.org/TR/2001/REC-SVG-20010904/DTD/svg10.dtd">
<svg version="1.0" xmlns="http://www.w3.org/2000/svg"
 width="533.000000pt" height="283.000000pt" viewBox="0 0 533.000000 283.000000"
 preserveAspectRatio="xMidYMid meet">

<g transform="translate(0.000000,283.000000) scale(0.100000,-0.100000)"
fill="#000000" stroke="none">
<path d="M1657 2393 l-277 -397 0 212 0 212 -195 0 -195 0 0 -491 0 -491 -480
-688 c-264 -379 -483 -695 -486 -704 -6 -15 86 -16 988 -16 l995 0 284 407
c156 223 287 412 292 419 6 11 -142 264 -177 302 -10 10 -71 -71 -291 -388
l-280 -400 -588 0 c-324 0 -587 4 -585 9 2 4 286 414 632 910 l630 901 18 -27
c9 -16 323 -500 696 -1078 l679 -1050 201 -3 c111 -1 202 0 202 2 0 4 -1706
2637 -1765 2723 l-22 33 -276 -397z"/>
<path d="M3171 2282 c-194 -278 -355 -511 -357 -517 -3 -8 163 -277 184 -297
4 -3 121 158 261 358 139 200 254 364 255 364 1 0 314 -484 696 -1075 l695
-1074 198 -1 c156 0 197 3 191 13 -9 15 -1743 2696 -1758 2719 -10 14 -66 -61
-365 -490z" fill="#004aad"/>
</g>
</svg>
