<svg xmlns="http://www.w3.org/2000/svg" version="1.1" viewBox="0 0 400 104.053">
  <g fillrule="evenodd" stroke="none">
    <path fill="#b4bc34" d="M277.083 14c-.056.092-.417.167-.801.166-.888 0-3.505.356-3.615.492-.046.057-.571.201-1.167.321-.596.119-1.158.273-1.25.342-.092.068-.598.217-1.125.33-.527.113-.958.262-.958.329 0 .068-.375.22-.834.337-.458.118-.833.267-.833.332 0 .064-.281.215-.625.335-.873.304-2.375 1.063-2.375 1.199 0 .063-.186.161-.412.218-.227.057-.696.291-1.042.521l-.941.623a52.65 52.65 0 00-1.382.997c-.589.435-1.103.791-1.142.791-.038 0-.332.263-.653.584-.321.321-.626.583-.678.583-.136 0-2.75 2.595-2.75 2.731 0 .062-.263.376-.583.697-.321.321-.584.643-.584.715 0 .073-.187.308-.416.524-.229.215-.417.453-.417.529 0 .075-.117.269-.26.429-.489.549-1.74 2.568-1.842 2.972-.055.221-.149.403-.208.403-.212 0-1.611 2.991-1.864 3.985-.102.404-.284.892-.403 1.083-.119.192-.267.684-.328 1.094-.061.409-.182.789-.269.842-.087.054-.207.573-.268 1.153-.144 1.38.221 1.334.673-.086.173-.543.368-1.025.434-1.071.066-.046.212-.365.324-.708.112-.344.261-.625.331-.625s.217-.3.327-.667c.11-.367.253-.667.319-.667s.227-.243.359-.541c.132-.298.301-.617.376-.709.075-.091.48-.689.899-1.327 1.113-1.691 3.334-4.162 4.726-5.256a9.65 9.65 0 00.882-.792c.194-.206.453-.375.577-.375.124 0 .269-.112.321-.25.053-.137.175-.25.271-.25.096 0 .407-.176.691-.392.283-.216.684-.446.89-.512.207-.065.375-.183.375-.263 0-.079.263-.239.584-.355.32-.116.583-.271.583-.344 0-.074.078-.134.174-.134.095 0 .654-.225 1.243-.5.588-.275 1.128-.5 1.201-.501.073 0 .32-.098.549-.217.229-.119.791-.318 1.25-.442.458-.123.908-.281 1-.35.091-.069.654-.219 1.25-.334.595-.115 1.12-.261 1.166-.324.097-.134 2.817-.498 3.72-.498.337 0 .614-.075.614-.167 0-.104 1-.167 2.666-.167 1.667 0 2.667.063 2.667.167 0 .092.288.167.64.167.933 0 3.415.348 3.613.507.093.075.675.224 1.292.332.617.107 1.122.254 1.122.326 0 .072.281.184.625.248.343.064 1.007.298 1.474.518.467.221.974.402 1.125.402.152 0 .276.063.276.14 0 .077.31.242.688.367.379.125.773.306.875.402.103.096.449.309.77.473.766.392 1.147.622 1.779 1.076.287.207.567.375.622.375.054 0 .244.132.42.292.404.366.653.562 1.179.923 1.057.728 3.5 3.001 3.5 3.258 0 .068.281.39.625.714.617.581.712.703 1.395 1.772.191.298.414.541.496.541.083 0 .151.081.151.179 0 .098.21.491.467.875.258.383.838 1.446 1.289 2.363.451.917.863 1.704.915 1.75.052.046.193.421.312.833.12.413.277.825.349.917.072.092.223.617.336 1.167.112.55.265 1.038.339 1.086.075.047.223.759.33 1.583.107.823.231 1.61.275 1.747.359 1.1.374 8.334.019 8.334-.072 0-.131.212-.131.472 0 .591-.355 2.416-.491 2.528-.056.045-.192.528-.303 1.072-.111.543-.267 1.031-.347 1.083-.08.052-.245.488-.367.97-.122.481-.278.875-.346.875-.068 0-.174.168-.235.375-.199.666-.989 2.204-1.203 2.341-.115.074-.21.224-.211.334-.006.351-1.164 2.006-2.206 3.151-.343.377-.625.73-.625.784-.001.147-1.957 2.055-3 2.925a46.7 46.7 0 00-1.18 1.011c-.146.135-.348.245-.449.245-.102 0-.283.132-.403.292-.12.16-.443.404-.718.541-.275.138-.54.304-.589.369-.049.065-.536.356-1.083.647-.547.29-1.032.575-1.078.631-.046.057-.368.236-.717.397-.349.161-.588.367-.532.458.142.229.586.205 1.094-.06.235-.123.648-.277.916-.344.784-.193 5.073-2.245 5.073-2.426 0-.05.243-.198.541-.33.298-.132.617-.303.709-.381.091-.078.547-.382 1.012-.676.465-.294.969-.647 1.121-.784.151-.138.476-.4.722-.584 1.046-.78 4.918-4.591 5.046-4.967.037-.11.206-.297.375-.417s.307-.32.307-.445c0-.124.059-.251.132-.282.072-.03.391-.43.708-.889.317-.458.614-.871.661-.916.199-.198 1.141-1.834 1.584-2.751.265-.55.532-1.037.593-1.083.061-.045.167-.27.236-.5.069-.229.269-.735.443-1.125.175-.389.363-.933.418-1.208.055-.275.157-.5.228-.5.07 0 .224-.488.343-1.083.118-.596.266-1.084.327-1.084.062 0 .204-.693.317-1.541.113-.848.292-1.722.399-1.942.269-.554.266-8.022-.003-8.933-.108-.367-.285-1.229-.394-1.917-.109-.687-.252-1.325-.32-1.417-.067-.091-.219-.635-.336-1.208-.118-.573-.273-1.042-.344-1.042-.071 0-.18-.301-.243-.67-.062-.368-.218-.775-.348-.904-.129-.13-.234-.341-.234-.47 0-.299-1.617-3.47-2.262-4.437a21.547 21.547 0 01-.706-1.125c-.119-.217-.279-.394-.355-.394-.075 0-.228-.219-.339-.488-.111-.268-.308-.528-.437-.578-.129-.049-.235-.164-.235-.254 0-.174-1.094-1.388-2.309-2.562-1.838-1.775-2.22-2.118-2.361-2.118-.083 0-.226-.139-.317-.31-.092-.171-.394-.405-.673-.52-.278-.116-.506-.278-.506-.361 0-.082-.188-.222-.417-.309-.229-.087-.417-.221-.417-.298 0-.077-.262-.242-.583-.368-.321-.126-.583-.281-.583-.345 0-.063-.225-.208-.5-.322-.275-.114-.5-.273-.5-.354 0-.08-.078-.146-.172-.146-.095 0-.713-.263-1.375-.583-.661-.321-1.296-.584-1.411-.584-.115 0-.209-.061-.209-.136 0-.075-.375-.239-.833-.364-.459-.124-.834-.285-.834-.357 0-.071-.45-.223-1-.336-.55-.114-1-.26-1-.325s-.525-.212-1.166-.327c-.642-.114-1.167-.262-1.167-.328s-.881-.21-1.958-.319c-1.077-.11-2.089-.269-2.248-.353-.398-.213-6.579-.201-6.711.012m-5.333 8.703c-.641.089-1.204.215-1.25.28-.046.066-.607.214-1.246.33-.64.115-1.24.269-1.334.343-.093.074-.583.23-1.087.347-.504.118-1.066.308-1.25.422-.183.114-.52.261-.75.327-.229.066-.812.299-1.296.518-.484.218-.953.397-1.042.397a.162.162 0 00-.162.16c0 .088-.3.25-.666.359-.367.11-.667.267-.667.349 0 .082-.225.227-.5.323s-.5.242-.5.325c0 .083-.087.15-.193.15-.106 0-.438.188-.738.417-.301.229-.608.417-.683.417-.075 0-.361.184-.636.409-.275.226-.676.544-.891.709-.797.607-1.417 1.169-2.998 2.715-1.686 1.649-2.119 2.147-3.692 4.25-.274.367-.574.757-.667.868-.093.111-.169.265-.169.343 0 .077-.174.377-.387.666a5.102 5.102 0 00-.61 1.199c-.123.371-.283.674-.356.674-.073 0-.223.3-.333.667-.11.366-.262.666-.338.666-.075 0-.223.338-.326.75-.104.413-.243.75-.31.75-.066 0-.215.432-.332.959-.116.527-.271 1.033-.344 1.125-.073.091-.225.654-.339 1.25-.113.595-.263 1.158-.332 1.25-.481.633-.601 8.769-.159 10.666.086.367.286 1.304.446 2.084.159.779.337 1.454.394 1.5.058.045.196.446.306.89.11.444.302.969.427 1.167.125.198.278.603.34.901.062.298.179.542.26.542.081 0 .237.3.346.666.11.367.253.667.318.667.064 0 .252.356.416.792.165.435.345.829.4.875.164.136 1.013 1.483 1.013 1.607 0 .063.109.233.243.379.787.858.924 1.024.924 1.123 0 .51 4.387 4.822 6.247 6.141.259.183.593.445.742.583.149.137.494.362.766.5.272.137.539.309.593.383.114.154.547.389 2.869 1.552 2.485 1.246 3.172 1.551 3.758 1.668.289.058.525.161.525.228 0 .068.469.22 1.042.338.573.118 1.117.272 1.21.343.198.152 2.964.653 3.609.654.245 0 .476.094.514.209.093.279 10.618.304 10.974.026.129-.1.909-.278 1.734-.395.825-.116 1.725-.303 2-.413.275-.111.969-.3 1.542-.42.573-.12 1.042-.269 1.042-.331s.375-.208.833-.326c.458-.117.833-.273.833-.345 0-.072.338-.216.75-.32.413-.104.75-.251.75-.327 0-.076.3-.228.667-.338.367-.109.667-.263.667-.341 0-.078.206-.194.458-.256.415-.104 1.654-.821 2.16-1.251.11-.094.239-.171.286-.171.16 0 1.678-1.083 1.812-1.292a.492.492 0 01.367-.208.494.494 0 00.367-.21c.073-.115.395-.406.716-.646 1.136-.852 4.821-4.74 4.829-5.094.003-.11.098-.26.213-.334.272-.174 1.292-1.638 1.292-1.855 0-.092.061-.192.137-.222.171-.07 1.629-2.661 1.787-3.176.064-.209.186-.467.271-.573.098-.123.083-.238-.039-.313-.112-.069-.355.082-.579.36-.213.264-.504.611-.649.771-.144.16-.262.348-.262.417 0 .114-.279.477-1.167 1.514-.183.214-.333.439-.333.5 0 .185-4.586 4.527-4.781 4.527-.057 0-.35.188-.65.417-.301.229-.623.417-.716.417-.093 0-.229.093-.303.208-.21.328-3.254 1.958-3.658 1.958-.108 0-.222.057-.253.125-.072.164-1.95.835-3.22 1.151-.549.137-1.074.309-1.167.381-.092.073-.918.225-1.835.338-.917.114-1.833.285-2.036.381-.511.242-7.424.241-7.921-.001-.207-.1-1.081-.267-1.942-.369-.861-.102-1.686-.251-1.833-.329-.148-.079-.737-.236-1.31-.348-.573-.113-1.041-.271-1.041-.35 0-.08-.11-.145-.245-.145-.347 0-1.757-.468-2.281-.757-.243-.134-.557-.243-.696-.243-.14 0-.356-.102-.479-.225-.124-.124-.504-.317-.846-.43-.341-.112-.62-.255-.62-.318 0-.062-.244-.218-.542-.348-.543-.236-2.067-1.164-3.087-1.88-.549-.385-.773-.564-2.042-1.633-.939-.79-2.994-2.835-3.449-3.431l-.878-1.152-.796-1.046a14.099 14.099 0 00-.476-.591 1.959 1.959 0 01-.302-.578c-.064-.202-.21-.461-.325-.576-.25-.252-1.936-3.7-1.936-3.961 0-.1-.142-.498-.315-.882a7.677 7.677 0 01-.437-1.283c-.068-.321-.181-.621-.25-.666-.07-.046-.226-.796-.346-1.667-.12-.871-.29-1.632-.377-1.692-.225-.154-.214-6.705.012-7.181.098-.208.268-1.015.377-1.794.109-.779.256-1.491.325-1.583.07-.092.224-.635.342-1.208.118-.573.27-1.042.337-1.042.068 0 .168-.225.223-.5.161-.804 1.473-3.591 2.131-4.526.171-.243.311-.49.311-.548 0-.059.077-.197.171-.308.094-.111.563-.727 1.042-1.368.479-.642 1.02-1.33 1.204-1.529.183-.198.67-.739 1.083-1.202.412-.463.826-.844.918-.847.092-.003.393-.249.669-.547.534-.577.76-.75 2.33-1.786.55-.363 1.078-.726 1.174-.807.095-.081.657-.403 1.249-.715.591-.312 1.113-.615 1.159-.675.047-.059.403-.193.793-.298.389-.105.708-.253.708-.331 0-.077.356-.229.792-.337.435-.109.948-.299 1.14-.423.191-.124.812-.317 1.379-.429.567-.111 1.071-.267 1.12-.346.049-.08.272-.145.496-.145.223 0 .406-.075.406-.166 0-.202-1.479-.185-3.083.036"/>
    <path fill="#000" d="M6.5.222c0 .455.394 2.198.515 2.28.727.492.728 73.488.001 73.998-.119.084-.516 2.051-.516 2.561 0 .249.875.272 10.25.272 9.459 0 10.25-.021 10.25-.278 0-.574-.384-2.475-.517-2.561-.331-.215-.478-6-.48-18.969L26 43.633l16.778.058c13.232.047 16.792.103 16.847.267.041.125.364.209.799.209 1.102 0 4.148.354 4.243.493.045.068.42.175.833.239.412.064.919.159 1.125.21l.375.094V33.63l-.542.097c-.298.054-.86.146-1.25.207-.389.06-.708.163-.708.23 0 .139-3.35.503-4.635.503-.476 0-.865.075-.865.166 0 .11-5.611.167-16.5.167H26V8.5l16.208.001c15.656 0 24.148.178 24.264.508.031.086.302.158.603.158.894 0 3.488.499 3.609.695a.216.216 0 00.297.066c.217-.134.253-1.7.042-1.83-.078-.049-.239-1.028-.356-2.177-.117-1.148-.277-2.088-.357-2.088-.079 0-.143-.201-.143-.447s-.085-1.108-.189-1.916L69.79 0H38.145C11.887 0 6.5.038 6.5.222m65.756 20.986c.065.39.171.746.237.792.152.107.507 2.683.507 3.675 0 .417.092.851.205.964.16.159.225 4.935.292 21.456.058 14.391.142 21.289.259 21.369.095.066.265.669.377 1.341.112.673.316 1.334.452 1.471.137.136.249.374.249.528.001.153.113.486.25.738.593 1.091.677 1.231.873 1.463 1.072 1.267 1.3 1.495 1.496 1.495.123 0 .266.11.318.245.052.135.349.337.662.45.312.113.567.262.567.332 0 .069.3.216.667.326.366.11.666.253.666.317 0 .065.469.216 1.042.335.573.12 1.081.276 1.129.346.495.733 38.663.711 38.663-.022 0-.075.218-.184.486-.243.543-.119 1.244-.683 1.4-1.128.057-.16.169-.291.248-.291.08 0 .245-.3.366-.667.121-.367.276-.667.346-.667.069 0 .201-.206.293-.458.151-.412.169-.369.181.417.007.481.088.875.18.875.091 0 .167.318.168.708.001.39.048.99.105 1.333l.104.625h16.331l-.111-.541a24.25 24.25 0 01-.213-1.292c-.056-.413-.163-.79-.237-.839-.423-.281-.518-5.089-.597-30.119l-.082-26.042h-17.348l.108.958c.059.527.156 1.446.215 2.042.059.596.19 1.137.29 1.202.283.184.258 44.662-.025 44.756-.115.039-.208.203-.208.366 0 .384-.792 1.176-1.176 1.176-.163 0-.328.094-.366.208-.092.277-29.736.309-29.923.033-.065-.097-.359-.274-.653-.393-.412-.166-.597-.393-.807-.99-.149-.426-.34-.905-.423-1.064-.09-.17-.152-10.17-.152-24.292V20.5h-17.53l.119.708m88.588-.519c-.957.079-1.782.208-1.834.287-.051.079-.437.195-.857.257s-1.039.26-1.374.44c-.336.18-.726.327-.867.327a.403.403 0 00-.348.24c-.05.132-.316.289-.589.349-.274.06-.538.215-.587.343-.05.129-.167.235-.261.235-.282 0-1.763 1.524-1.973 2.029-.107.259-.248.471-.315.471-.066 0-.209.3-.319.666-.11.367-.26.667-.334.667-.073 0-.229.431-.346.958-.118.527-.273.997-.346 1.043-.154.099-.494 2.396-.494 3.344 0 .36-.075.655-.167.655-.108 0-.166 2.028-.166 5.75s.058 5.75.166 5.75c.092 0 .167.304.167.676 0 .802.346 3.038.489 3.157.055.046.197.457.315.913s.275.869.348.917c.073.048.225.368.337.712.112.344.254.625.317.625.062 0 .217.244.345.542.363.844 2.382 2.709 3.141 2.9.206.052.375.151.375.221s.337.222.75.337c.412.115.75.266.75.335 0 .068.618.219 1.375.336.756.116 1.428.294 1.494.395.084.131 5.139.208 17.666.267l17.548.084.667.408c1.036.634 1.427 1.141 1.631 2.115.103.491.247.893.32.893.072 0 .132 1.763.132 3.917 0 2.5-.06 3.917-.167 3.917-.091 0-.166.221-.166.492 0 .868-.407 1.508-1.564 2.463-.604.498-2.003.537-19.52.539-16.642.003-23.18-.128-23.407-.468-.051-.076-.693-.238-1.426-.36s-1.386-.3-1.449-.397c-.285-.432-.324.19-.128 2.055.115 1.105.26 2.009.321 2.009s.21 1.031.33 2.292c.121 1.271.302 2.346.405 2.414.664.434 53.103.088 53.678-.354.097-.075.645-.232 1.218-.35.573-.118 1.042-.263 1.042-.322s.337-.207.75-.329c.412-.121.75-.279.75-.349 0-.071.225-.221.5-.335.275-.114.5-.261.5-.326s.201-.224.448-.355c.503-.265 1.218-.931 1.218-1.134 0-.074.145-.264.321-.424.37-.335 1.102-1.778 1.275-2.511.064-.275.177-.578.251-.672.675-.867.673-20.946-.002-21.827-.07-.093-.225-.637-.342-1.21-.118-.573-.268-1.041-.332-1.041-.065 0-.216-.3-.337-.667-.121-.367-.285-.667-.364-.667-.08 0-.216-.187-.303-.416-.087-.229-.217-.417-.289-.417-.071 0-.224-.213-.339-.473a1.703 1.703 0 00-.666-.708c-.251-.13-.554-.367-.674-.527-.12-.161-.318-.292-.44-.292a.357.357 0 01-.306-.217c-.046-.12-.392-.32-.768-.444-.377-.124-.685-.278-.685-.343 0-.064-.45-.213-1-.329-.55-.117-1-.268-1-.336 0-.147-2.232-.498-3.163-.498-.358 0-.697-.075-.753-.166-.068-.11-5.61-.167-16.085-.167-15.902 0-17.359-.046-17.942-.562-1.109-.984-1.39-1.549-1.39-2.802 0-.339-.075-.663-.167-.719-.097-.061-.166-1.027-.166-2.334 0-1.307.069-2.273.166-2.333.092-.057.167-.328.167-.603 0-1.254.431-2.168 1.381-2.927.63-.502 2.35-.553 18.608-.551 15.575.002 23.799.165 24.003.476.05.077.71.235 1.466.351.757.116 1.375.277 1.375.358 0 .08.198.146.44.146.428 0 .436-.019.328-.792a64.336 64.336 0 01-.213-1.75c-.056-.527-.156-.958-.222-.958s-.216-.937-.333-2.083c-.116-1.146-.277-2.084-.356-2.084-.079 0-.144-.3-.144-.666V20.5l-24.875.023c-13.681.013-25.658.088-26.614.166m60.558.931c.063.617.179 1.16.257 1.209.079.048.232.988.341 2.088.109 1.1.266 2.13.349 2.289.187.358.206 44.294.019 44.294-.072 0-.228 1.218-.345 2.706-.118 1.488-.28 2.747-.36 2.796-.08.05-.198.595-.261 1.211l-.115 1.12h18.756l-.116-.871c-.063-.478-.177-.947-.253-1.041-.181-.224-.507-3.284-.507-4.761 0-.662-.072-1.16-.167-1.16-.11 0-.167-8.611-.167-25.5V20.5h-17.546l.115 1.12m96.265-.57c0 .302.066.621.146.708.164.178.52 2.45.52 3.318 0 .31.094.594.209.632.278.093.309 48.237.03 48.423-.097.065-.271.944-.385 1.952-.114 1.009-.278 1.905-.364 1.992-.086.087-.156.406-.156.708v.55h9.344c8.82 0 9.34-.016 9.262-.291a12.65 12.65 0 01-.196-1.042c-.063-.413-.173-.825-.245-.917-.165-.211-.499-3.281-.499-4.59 0-.551-.074-.993-.166-.993-.111 0-.167-6.722-.167-19.833 0-13.111.056-19.834.167-19.834.091 0 .166-.176.166-.391 0-.512.336-1.467.614-1.746.121-.121.22-.284.22-.362 0-.078.281-.233.625-.345.343-.112.678-.287.744-.388.164-.255 29.257-.263 29.428-.008.066.097.344.267.619.379.809.329 1.223 1.154 1.413 2.814.411 3.587.129 43.585-.31 43.874-.075.049-.188.615-.251 1.257a42.273 42.273 0 01-.213 1.791l-.098.625h18.585l-.097-.625c-.053-.343-.19-1.3-.305-2.125-.115-.825-.287-1.553-.383-1.619-.119-.081-.2-6.98-.257-21.714-.061-15.788-.134-21.628-.272-21.714-.104-.066-.243-.607-.31-1.203-.067-.595-.255-1.383-.418-1.75a7.448 7.448 0 01-.411-1.208c-.064-.298-.173-.542-.243-.542-.069 0-.224-.296-.343-.658-.12-.362-.319-.697-.444-.744-.124-.048-.226-.186-.226-.306 0-.264-1.711-1.958-1.978-1.958-.104 0-.189-.071-.189-.158 0-.163-.499-.473-1.5-.93a640.11 640.11 0 00-1.111-.507c-.29-.133-.89-.29-1.333-.349-.443-.059-.847-.17-.897-.246-.247-.373-5.813-.493-20.659-.444l-15.583.05-.967.461c-.532.253-1.079.553-1.215.666-.872.728-1.401 1.272-1.401 1.44 0 .107-.11.236-.244.287-.134.052-.286.228-.338.392-.052.164-.243.468-.423.677l-.329.378-.001-1.067a29 29 0 00-.107-2.192l-.107-1.125h-16.951v.55m68.026.208c-.375.824-.284.922.745.801l.937-.11-.07 2.109-.07 2.109h.882c.772 0 .883-.042.883-.334 0-.183-.075-.333-.167-.333-.1 0-.166-.702-.166-1.772v-1.771l1.005.114 1.005.113-.111-.467c-.204-.853-.293-.884-2.56-.884-2.109 0-2.12.002-2.313.425m5.028 1.367c-.017.986-.078 2.185-.137 2.667l-.108.875h1.482l-.065-1.542c-.055-1.316-.034-1.481.143-1.125.114.229.298.511.408.626.111.115.248.359.306.542.058.182.176.332.261.332.086 0 .156.113.156.25 0 .522.666.262.961-.375.159-.344.382-.724.497-.845a.833.833 0 00.208-.49c0-.225.042-.216.245.053.276.364.346 1.74.089 1.74-.092 0-.167.188-.167.417 0 .394.05.417.917.417.944 0 1.312-.429.675-.785-.328-.184-.408-3.687-.088-3.885.457-.282.025-.664-.752-.664-.668 0-.784.055-.962.459-.112.252-.293.553-.403.668-.11.116-.295.472-.41.792-.208.573-.644.806-.644.343 0-.131-.097-.337-.215-.458s-.315-.464-.437-.762-.287-.542-.368-.542c-.08 0-.146-.112-.146-.25 0-.183-.19-.25-.709-.249h-.708l-.029 1.791M2.875 93.276c-.206.044-.375.15-.375.236 0 .085-.108.155-.239.155-1.999 0-3.134 5.316-1.509 7.069.228.246.415.519.415.606 0 .087.082.158.182.158.1 0 .368.146.595.325.227.179.751.375 1.164.437.414.062.789.209.834.327.045.118.302.305.57.416.268.111.488.258.488.326 0 .492 2.362.821 3.542.494.819-.228.903-.825.116-.825-.661 0-2.172-.675-1.825-.816.65-.262 1.699-1.071 1.867-1.44.103-.226.246-.411.319-.411.704 0 .621-4.208-.101-5.131-.6-.767-1.226-1.34-1.585-1.451-.229-.071-.469-.211-.532-.311-.12-.186-3.223-.316-3.926-.164m43.825.091c-.11.11-.2.271-.2.359 0 .088-.478 1.142-1.062 2.342-.584 1.2-1.161 2.463-1.283 2.807-.122.344-.27.625-.328.625-.059 0-.206.3-.327.667-.121.366-.283.666-.36.666-.077 0-.14.12-.14.266 0 .146-.15.305-.333.353-.991.259-.342.715 1.018.715h1.352l-.104-.553a2.514 2.514 0 01.081-1.084l.185-.53h3.976l.1.5c.055.275.166.5.246.5.08 0 .146.112.146.25s-.075.25-.167.25c-.092 0-.167.15-.167.333 0 .308.111.334 1.417.334 1.4 0 2.033-.395 1.167-.727a.41.41 0 01-.25-.351c0-.141-.063-.256-.14-.256-.077 0-.239-.3-.36-.666-.121-.367-.271-.667-.334-.667-.062 0-.212-.3-.333-.667-.121-.366-.282-.666-.358-.666-.075 0-.222-.338-.326-.75-.104-.413-.243-.75-.309-.75s-.219-.3-.34-.667c-.121-.367-.278-.667-.347-.667-.07 0-.22-.279-.332-.62-.113-.341-.306-.722-.43-.845-.123-.124-.225-.332-.225-.463 0-.295-.848-.324-1.133-.038m303.842-.091c-.207.044-.375.142-.375.218 0 .075-.186.183-.413.24-.496.125-1.687 1.291-1.849 1.81-.064.205-.195.423-.291.485-.252.161-.232 3.348.022 3.433a.307.307 0 01.197.273c0 .288.996 1.765 1.189 1.765.087 0 .384.167.66.371.6.443 3.56.642 4.658.313.731-.219 2.058-1.412 2.244-2.017.07-.229.211-.471.313-.536.118-.075.186-.767.186-1.881 0-1.114-.068-1.806-.186-1.881-.102-.066-.237-.284-.3-.486-.148-.474-1.173-1.499-1.647-1.647-.201-.063-.419-.196-.483-.296-.119-.186-3.223-.316-3.925-.164m44.921.118c-.15.15-.348.273-.44.273-.411 0-.856.978-.856 1.88 0 1.063.741 2.02 1.874 2.42 1.846.652 2.528 1.379 2.191 2.336-.235.669-2.149.844-2.548.234-.055-.084-.269-.243-.476-.351-.206-.109-.375-.308-.375-.442 0-.153-.164-.244-.439-.244-.479 0-.502.997-.053 2.284l.179.512 2.134-.023 2.135-.023.559-.546c1.101-1.077.805-3.886-.462-4.383-.304-.119-.553-.261-.553-.316 0-.054-.337-.199-.75-.32-.412-.122-.75-.289-.75-.37 0-.082-.099-.148-.22-.148s-.383-.188-.582-.417c-.199-.229-.296-.417-.216-.417.08 0 .184-.143.23-.319.143-.548 1.668-.491 2.244.085.129.129.296.234.37.234.075 0 .175.15.223.334.058.222.227.333.506.333h.42l-.094-1.292c-.051-.71-.104-1.306-.117-1.324-.167-.229-3.904-.22-4.134.01M22 93.646c0 .172.113.407.25.521.203.168.25.709.25 2.896 0 4.405.641 5.272 3.896 5.269 1.243-.001 2.437-.243 2.437-.495 0-.081.142-.193.316-.248.173-.055.413-.341.532-.636.119-.295.295-.589.391-.654.105-.071.208-1.324.259-3.153.063-2.218.142-3.054.294-3.105.807-.267.159-.708-1.042-.708-1.322 0-1.576.197-1 .774.2.199.25.742.25 2.679 0 3.535-.497 4.234-2.852 4.008-.851-.082-1.069-.254-1.606-1.271-.323-.611-.288-5.083.042-5.356.673-.559.315-.834-1.084-.834-1.193 0-1.333.033-1.333.313m41.833 0c0 .172.113.407.25.521.208.172.25.806.25 3.77 0 3.056-.035 3.563-.25 3.563-.139 0-.25.148-.25.333 0 .322.111.334 3.314.334h3.313l.187-.741c.352-1.398-.06-1.999-.722-1.054-.238.34-.423.378-2.093.436L66 100.87v-3.197c0-2.619.045-3.242.25-3.447.641-.641.336-.893-1.083-.893-1.194 0-1.334.033-1.334.313m19.5 0c0 .172.113.407.25.521.208.172.25.795.25 3.669 0 2.923-.039 3.477-.25 3.558-.86.33-.24.773 1.084.773 1.222 0 1.333-.028 1.333-.334 0-.185-.111-.333-.25-.333-.214 0-.25-.507-.25-3.563 0-2.964.042-3.598.25-3.77.673-.559.315-.834-1.083-.834-1.194 0-1.334.033-1.334.313m15.162-.021c-.003.16-.116.437-.25.615-.61.807.108 1.55.815.843.171-.171.593-.25 1.345-.25h1.095v3.24c0 1.981-.065 3.281-.167 3.344-.648.4-.143.75 1.084.75 1.226 0 1.731-.35 1.083-.75-.102-.063-.167-1.363-.167-3.344v-3.24h1.153c.634 0 1.178.074 1.208.163.151.441 1.139.39 1.139-.058 0-.241-.071-.438-.159-.438-.087 0-.208-.263-.268-.583l-.11-.584h-3.898c-3.599 0-3.898.023-3.903.292m19.505.01c0 .167.225.518.5.782.275.263.5.54.5.614 0 .075.131.274.292.444.16.169.441.52.625.781.183.26.502.676.708.924.206.248.375.497.375.552 0 .056.157.259.35.451.427.427.428 3.042.001 3.306a.353.353 0 00-.131.411c.173.448 2.613.386 2.613-.067 0-.183-.075-.333-.166-.333-.092 0-.167-.112-.167-.25s-.075-.25-.167-.25c-.327 0-.189-2.212.167-2.667.179-.229.328-.51.33-.625.002-.114.08-.208.174-.208.094 0 .242-.187.329-.417.087-.229.232-.416.322-.416.089 0 .293-.282.453-.625.16-.344.388-.685.508-.759.12-.073.217-.214.217-.314 0-.099.188-.355.417-.567.827-.767.587-1.069-.852-1.069h-1.268l.107.572c.072.385.037.617-.107.709-.118.075-.326.361-.464.636-.137.275-.381.598-.541.718-.16.12-.292.326-.292.458s-.047.241-.106.241c-.159 0-.894-.828-.894-1.008 0-.086-.15-.25-.333-.364-.183-.115-.333-.294-.333-.398 0-.104-.1-.272-.222-.373-.131-.109-.191-.39-.148-.688l.074-.503h-1.435c-1.276 0-1.436.034-1.436.302m34.5.115c0 .229.062.417.139.417.076 0 .244.206.375.458.13.252.327.554.438.672.111.118.25.474.31.792.06.318.163.578.23.578s.22.3.341.666c.121.367.275.667.342.667s.221.337.343.75c.122.412.28.75.352.75.071 0 .131.094.132.208.001.115.226.65.5 1.19.274.54.498 1.084.498 1.209 0 .398 1.346.298 1.452-.107.048-.183.153-.333.234-.333.081 0 .147-.114.147-.252 0-.139.161-.607.356-1.042.948-2.102 1.119-2.503 1.331-3.123.126-.367.274-.704.33-.75.056-.046.193-.365.305-.708.112-.344.273-.625.358-.625.084 0 .154-.136.154-.302 0-.166.15-.463.333-.66.646-.693.458-.872-.917-.872-1.139 0-1.25.03-1.25.334 0 .183.075.333.167.333.092 0 .167.112.167.25s-.059.25-.131.25c-.071 0-.23.337-.351.75-.122.412-.289.75-.37.75-.082 0-.148.126-.148.281 0 .154-.15.604-.334 1l-.699 1.505-.366.787-.139-.537c-.076-.295-.2-.536-.274-.536-.075 0-.225-.3-.335-.667-.11-.366-.258-.666-.329-.666-.07 0-.225-.377-.343-.838-.118-.461-.338-.962-.49-1.114-.188-.189-.267-.528-.249-1.078l.025-.804h-1.317c-1.294 0-1.317.008-1.317.417m21.167-.093c0 .178.075.37.166.426.103.064.167 1.502.167 3.76 0 2.327-.061 3.657-.167 3.657-.091 0-.166.15-.166.333 0 .305.111.334 1.271.334h1.27l-.144-.542c-.08-.298-.145-2.042-.145-3.875 0-1.833.065-3.577.145-3.875l.144-.542h-1.27c-1.147 0-1.271.032-1.271.324M189 93.635c0 .166.15.463.333.66.311.333.334.588.334 3.687 0 3.182-.015 3.334-.334 3.435-.923.293-.364.75.917.75 1.139 0 1.25-.03 1.25-.334 0-.183-.075-.333-.167-.333-.091 0-.166-.112-.166-.25s-.075-.25-.167-.25c-.104 0-.167-.972-.167-2.583 0-1.611.063-2.584.167-2.584.092 0 .167.072.167.16 0 .088.675.833 1.5 1.656.825.822 1.5 1.54 1.5 1.594 0 .362 2.984 3.09 3.379 3.09h.443l.06-4.041c.033-2.223.119-4.248.191-4.5l.132-.459h-1.186c-1.21 0-1.537.249-1.014.772.105.106.153 1.059.125 2.492-.028 1.391-.103 2.206-.186 2.037-.077-.156-.882-1.056-1.79-2a194.167 194.167 0 01-2.36-2.496c-.808-.886-2.961-1.251-2.961-.503m21.167.014c0 .174.262.547.583.829.321.281.583.57.584.642 0 .123.498.784 1.071 1.422.144.16.262.362.262.449 0 .086.131.255.292.375.836.622 1.097 2.45.618 4.342l-.116.459h1.353c1.242 0 1.353-.028 1.353-.334 0-.185-.111-.333-.25-.333-.333 0-.372-3.239-.042-3.45.115-.073.321-.358.459-.633.137-.275.381-.598.541-.718.16-.12.292-.322.292-.45s.094-.292.208-.366c.115-.073.321-.355.459-.626.137-.271.456-.691.708-.934.822-.793.644-.99-.896-.99h-1.354l.101.507c.102.512-.129 1.128-.518 1.377a.502.502 0 00-.208.38c0 .136-.119.292-.264.348-.145.056-.315.238-.376.405-.062.167-.187.25-.278.185-.258-.184-1.176-1.418-1.297-1.743-.059-.161-.186-.292-.28-.292-.095 0-.172-.263-.172-.583v-.584h-1.417c-1.279 0-1.416.031-1.416.316m20.666-.016c0 .165.081.381.181.481.122.122.162 1.446.125 4.12l-.056 3.94 3.167-.045 3.167-.046.052-.541c.029-.298.122-.542.208-.542s.156-.225.156-.5c0-.619-.419-.672-1.003-.128-.348.324-.62.38-2.125.436l-1.725.064.069-3.311c.038-1.821.126-3.517.196-3.769l.127-.459h-1.269c-1.112 0-1.27.038-1.27.3m33-.058c0 .133.188.443.417.691.229.247.417.588.417.758 0 .17.065.309.146.309.08 0 .19.225.245.5.055.275.254.838.442 1.25.188.413.387.975.442 1.25.055.275.153.5.219.5.065 0 .218.413.339.917.121.504.269.917.33.917.06 0 .212.375.337.833.29 1.065 1.415 1.298 1.608.333.055-.275.16-.5.234-.5.074 0 .226-.412.339-.916.113-.505.26-.917.327-.917s.172-.269.233-.598c.062-.329.25-.873.419-1.208.168-.336.345-.723.393-.861.055-.159.092-.114.1.125.007.207.088.375.18.375s.167.104.167.231c0 .317.541 2 .676 2.103.06.045.209.477.331.958.122.481.278.875.346.875.068 0 .147.169.177.375.104.733 1.348.531 1.541-.25.085-.344.216-.625.291-.625.076 0 .138-.104.138-.231 0-.323.542-2.001.68-2.102.062-.046.209-.515.326-1.042.117-.527.269-.958.337-.958s.217-.39.331-.867c.206-.857.284-1.004.88-1.658.546-.599.252-.809-1.132-.809-1.274 0-1.617.239-1.094.762.185.185-.136 1.535-.549 2.307a4.435 4.435 0 00-.367 1.125c-.06.352-.177.64-.26.64-.084 0-.152.154-.152.343 0 .189-.075.297-.167.24-.092-.057-.167-.249-.167-.427 0-.177-.066-.323-.147-.323-.08 0-.233-.344-.339-.765-.106-.421-.297-.928-.424-1.125-.128-.198-.283-.641-.346-.985s-.192-.625-.288-.625c-.096 0-.05-.137.102-.305.611-.675.381-.862-1.058-.862-1.222 0-1.333.028-1.333.334 0 .183.075.333.167.333.244 0 .193.701-.077 1.057-.128.169-.282.6-.343.958-.06.359-.165.652-.233.652s-.211.38-.318.845c-.264 1.141-.658 1.552-.802.835-.056-.283-.154-.514-.217-.514s-.213-.393-.333-.875a11.716 11.716 0 00-.543-1.6c-.235-.526-.294-.904-.215-1.375l.11-.65h-1.431c-1.139 0-1.432.05-1.432.242m25.592.217c.211.736.282 7.401.082 7.601-.534.534-.201.774 1.076.774 1.277 0 1.611-.24 1.077-.774-.2-.2-.129-6.865.081-7.601l.131-.459h-2.578l.131.459m15.334 0c.21.736.281 7.401.081 7.601-.522.522-.198.774.993.774 1.165 0 1.717-.466.917-.773-.269-.104-.392-5.403-.125-5.386.069.004.612.534 1.208 1.178a206.71 206.71 0 002.459 2.595c.756.784 1.375 1.473 1.375 1.531 0 .28 1.018 1.021 1.401 1.021h.432v-3.979c0-3.334.041-4.014.25-4.187.642-.533.311-.834-.917-.834-1.24 0-1.382.12-.995.843.1.187.152 1.23.125 2.504l-.046 2.184-.709-.695c-.389-.382-.708-.748-.708-.814 0-.065-.788-.922-1.75-1.903-.963-.981-1.75-1.86-1.75-1.952 0-.096-.504-.167-1.186-.167h-1.186l.131.459m21.741-.146c0 .172.112.407.25.521.208.172.25.806.25 3.77 0 3.056-.036 3.563-.25 3.563-.142 0-.25.15-.25.347 0 .57 5.438.42 6.417-.176.682-.416 1.25-.954 1.25-1.185 0-.071.129-.259.288-.417.426-.426.526-3.458.141-4.268-.585-1.233-1.797-2.134-2.871-2.134-.215 0-.392-.075-.392-.167 0-.103-.916-.167-2.416-.167-2.253 0-2.417.022-2.417.313m42.5.098c0 .225.141.544.314.708.173.164.366.542.43.84.064.298.178.541.255.541.076 0 .189.302.252.67.062.369.207.764.322.879.115.115.3.59.412 1.054.111.465.297 1.027.412 1.25.116.222.315.759.443 1.193.128.433.291.788.363.788.072 0 .13.154.13.343 0 .779 1.391.363 1.566-.468.081-.39.204-.709.273-.709.068 0 .177-.281.241-.625.065-.343.256-.929.425-1.301.169-.372.396-1.028.505-1.458.237-.945.415-.994.567-.157.063.343.219.786.346.984.127.198.318.704.424 1.125.106.421.247.766.313.766s.217.431.334.958c.239 1.074.359 1.202 1.131 1.206.432.002.542-.066.542-.331 0-.183.067-.333.148-.333.082 0 .199-.269.26-.598.062-.329.253-.873.425-1.209.172-.335.363-.891.425-1.235.062-.344.167-.625.234-.625s.22-.413.341-.917c.121-.504.277-.916.346-.916.069 0 .175-.295.236-.656.061-.361.292-.867.514-1.125.736-.856.577-1.053-.851-1.053-1.316 0-1.77.273-1.193.717.263.202.22 1.117-.053 1.117-.07 0-.18.277-.244.617a5.453 5.453 0 01-.421 1.216 5.349 5.349 0 00-.419 1.205c-.159.846-.484.645-.75-.463-.12-.5-.267-.909-.326-.909-.06 0-.204-.37-.32-.823-.116-.453-.269-.847-.339-.875-.28-.112-.36-.973-.1-1.073.848-.326.243-.729-1.094-.729h-1.348l.109.65c.108.636-.178 2.017-.417 2.017-.065 0-.213.45-.33 1-.116.55-.277 1-.356 1-.079 0-.144.146-.144.323 0 .178-.075.37-.166.427-.092.057-.167-.019-.167-.169 0-.149-.106-.377-.235-.506s-.286-.537-.348-.905c-.062-.369-.176-.67-.253-.67-.077 0-.232-.413-.345-.917-.113-.504-.268-.916-.346-.916-.077 0-.14-.15-.14-.334 0-.183.075-.333.167-.333.092 0 .167-.15.167-.333 0-.306-.111-.334-1.334-.334-1.305 0-1.333.009-1.333.411m-363.286.987c.768.332 1.622 1.324 1.734 2.015.053.323.161.587.24.587.08 0 .145.338.145.75 0 .413-.075.75-.166.75-.092 0-.167.135-.167.299 0 1.308-3.469 2.526-4.246 1.491a1.22 1.22 0 00-.466-.338.787.787 0 01-.405-.406c-.06-.163-.153-.333-.208-.379-.853-.719-.598-3.785.351-4.205.261-.115.474-.264.474-.331 0-.399 1.942-.565 2.714-.233m347.559-.055c.757.287 1.711 1.415 1.831 2.163.058.364.171.661.251.661.08 0 .145.3.145.667 0 .366-.067.666-.149.666-.081 0-.192.175-.245.388-.324 1.289-2.399 2.166-3.834 1.621-.497-.189-1.272-.836-1.272-1.062 0-.088-.12-.248-.267-.355-.359-.263-.51-2.186-.245-3.131.371-1.326 2.34-2.168 3.785-1.618m-22.368.306c.051.081.296.199.545.261 1.917.482 1.959 5.09.047 5.09-.167 0-.328.07-.358.154-.031.085-.599.207-1.264.272l-1.208.117V94.833h1.073c.591 0 1.115.067 1.165.149M47.877 97.474c.251.489.456.921.456.958 0 .037-.492.068-1.094.068-1.228 0-1.241-.033-.549-1.331.17-.319.31-.681.31-.803 0-.36.356.09.877 1.108"/>
  </g>
</svg>