<svg xmlns="http://www.w3.org/2000/svg" version="1.1" viewBox="0 0 400 71.394">
  <g fillrule="evenodd" stroke="none">
    <path fill="#088f33" d="M195.136 27.82c-.973.884-1.371 1.218-1.806 1.513-.203.138-.54.382-.751.542-.21.16-.463.292-.564.292-.1 0-.182.067-.182.148 0 .082-.182.195-.405.251-.222.055-.504.195-.625.31-.121.116-.538.359-.926.542-.389.183-.707.382-.708.442-.003.13-1.782.817-3.336 1.288-2.441.741-2.791.829-3.75.942-.55.065-1.095.194-1.211.287-.116.092-.941.167-1.833.165-.948-.002-1.718.074-1.852.183-.323.26-12.213.241-13.02-.022-.321-.104-1.446-.261-2.5-.349-2.748-.229-6.194-.675-6.584-.851-.183-.083-.821-.201-1.416-.262-.596-.061-1.159-.17-1.25-.241-.092-.071-.636-.183-1.209-.248-.573-.065-1.041-.177-1.041-.249 0-.072-.412-.183-.914-.245-.503-.063-.953-.177-1-.253-.047-.076-.536-.191-1.086-.255-.551-.064-1.039-.178-1.086-.253-.046-.076-.59-.19-1.208-.254s-1.216-.191-1.329-.282c-.113-.09-.788-.164-1.5-.163-.712.001-1.369-.058-1.461-.132-.455-.364-9.351-.76-11.5-.511-2.448.283-2.987.361-3.25.47-.137.057-.737.196-1.333.309-1.611.305-2.729.588-2.917.737-.091.073-.448.185-.793.25-.345.064-.668.183-.718.265-.051.081-.218.148-.374.148-.155.001-.496.113-.759.25-.262.137-.617.249-.787.249-.474 0-4.315 2.114-4.318 2.375 0 .069-.109.125-.242.125a.497.497 0 00-.375.213c-.074.116-.344.346-.601.51-.541.344-3.949 3.736-3.949 3.93 0 .071-.132.284-.292.473-.16.189-.404.509-.542.711-.137.203-.381.54-.541.751-.161.21-.292.463-.292.564 0 .1-.075.182-.167.182-.091 0-.166.095-.166.21 0 .116-.15.491-.334.833-.346.645-.437 1.373-.191 1.524.077.049.246-.116.374-.365.129-.249.271-.49.318-.536.046-.045.303-.407.572-.802.623-.918 2.576-2.903 3.246-3.299.283-.167.515-.363.515-.435 0-.072.115-.13.255-.13s.297-.108.347-.24c.051-.132.311-.288.578-.347.268-.058.486-.167.486-.24 0-.074.132-.179.292-.232.16-.054.404-.173.542-.264.396-.263 1.793-.844 2.032-.845.12-.001.412-.103.65-.227a4.451 4.451 0 011.025-.336c.326-.061.678-.215.783-.342.106-.126.657-.283 1.226-.347.568-.065 1.112-.18 1.208-.257.387-.312 9.408-.661 9.409-.365.001.069 1.166.137 2.589.151 1.424.014 2.68.099 2.791.188.112.09.878.217 1.703.283.825.066 1.575.177 1.667.247.092.07.57.172 1.063.228.493.055 1.062.21 1.266.343.204.134 1 .333 1.771.443.77.111 1.475.259 1.567.331.091.071.523.183.958.248.435.064.792.177.792.25 0 .072.375.183.833.246.458.063.833.176.833.25 0 .075.375.187.833.25.459.063.872.178.92.254.047.077.498.191 1.002.254s.954.175.999.249c.046.073.571.186 1.167.25.596.064 1.121.176 1.166.249.045.073.663.186 1.373.25.71.065 1.368.18 1.463.255.64.509 14.001.515 14.65.007.097-.077.699-.191 1.337-.253.637-.063 1.237-.178 1.333-.257.096-.078.605-.196 1.132-.261.527-.065.959-.176.959-.247 0-.071.335-.179.746-.24.41-.062.783-.173.829-.247.046-.075.402-.186.791-.249.389-.062.747-.165.795-.23.049-.064.501-.256 1.005-.426.968-.326 1.338-.477 2.865-1.175.521-.238 1.021-.433 1.111-.433.09 0 .188-.056.219-.125.05-.113.649-.461 2.055-1.197.275-.143.525-.317.556-.386.03-.069.164-.125.297-.125a.386.386 0 00.331-.235c.05-.129.273-.281.495-.336.223-.056.405-.176.405-.266 0-.089.083-.163.186-.163.197 0 1.782-1.089 2.064-1.418.091-.107.251-.226.354-.263.716-.262 4.896-4.38 4.896-4.824 0-.479-.224-.408-1.031.325"/>
    <path fill="#040404" d="M47.708.121c-.717.252.123 1.454 1.25 1.79.207.061.375.181.375.267 0 .085.115.155.256.155.14 0 .298.113.351.25.052.138.171.25.264.25.23 0 1.463 1.249 1.463 1.481 0 .102.069.186.153.186.084 0 .203.225.263.5.061.275.175.5.253.5.079 0 .196.356.26.792.064.435.2.845.302.91.266.171.264 47.427-.001 47.596-.103.065-.241.775-.307 1.577-.066.802-.179 1.458-.25 1.458-.072 0-.18.375-.241.834-.061.458-.178.833-.261.833-.083 0-.202.338-.263.75-.062.413-.173.75-.247.75-.074 0-.188.244-.252.542-.065.298-.165.579-.222.625-.17.136-.69 1.049-.878 1.541-.097.252-.243.459-.326.459-.082 0-.15.087-.15.194 0 .315-3.029 3.139-3.367 3.139-.732 0-1.014 1.316-.348 1.625.535.249 2.715.282 2.715.042 0-.108 2.083-.167 5.917-.167 3.833 0 5.916.059 5.916.167 0 .1.667.166 1.667.166s1.667-.066 1.667-.166c0-.092.112-.167.25-.167.498 0 .277-.845-.397-1.52-.356-.355-.731-.647-.834-.647-.102 0-.186-.058-.186-.13 0-.072-.231-.267-.512-.434-.677-.399-1.932-1.663-2.063-2.077-.058-.18-.214-.37-.348-.421a.407.407 0 01-.244-.349c0-.14-.069-.255-.153-.255-.084 0-.203-.225-.263-.5-.061-.275-.176-.5-.256-.5-.08 0-.195-.263-.255-.584-.061-.321-.168-.583-.239-.583-.071 0-.182-.431-.248-.958-.066-.527-.178-.996-.25-1.042-.408-.261-.502-5.492-.483-27.149.011-12.43.054-22.451.096-22.268.103.442 1.237 2.81 1.398 2.919.07.046.178.29.242.541.063.252.175.457.249.457.075 0 .185.225.246.5.06.275.173.5.25.5.077 0 .189.225.25.5.06.275.17.5.244.5.075 0 .184.262.245.583.06.321.181.584.268.584.088 0 .16.093.161.208.001.115.186.583.411 1.042.226.458.413.927.415 1.041.003.115.075.209.159.209s.203.225.263.5c.061.275.173.5.25.5.077 0 .19.225.25.5.061.275.171.5.245.5.074 0 .184.262.244.583.061.321.175.583.256.583.08 0 .195.225.255.5.061.275.173.5.25.5.077 0 .19.225.25.5.061.275.179.5.264.5.084 0 .153.08.153.177 0 .266.869 2.065 1.028 2.129.076.03.139.199.139.375 0 .177.15.6.333.942.183.343.333.717.333.833 0 .116.057.213.125.214.069.002.313.413.542.914.229.5.465.911.524.913.058.002.158.209.221.46s.167.495.232.542c.064.046.337.647.606 1.335.27.687.543 1.288.607 1.335.064.046.168.29.232.541.063.252.175.457.249.457.075 0 .185.225.246.5.06.275.173.5.25.5.077 0 .189.225.25.5.06.275.173.5.25.5.077 0 .189.225.25.5.06.275.17.5.244.5.075 0 .184.262.245.583.06.321.175.584.255.584.08 0 .195.225.256.5.06.275.169.5.241.5.073 0 .227.337.342.75.115.412.269.75.342.75.072 0 .181.225.241.5.061.275.173.5.25.5.077 0 .19.225.25.5.061.275.171.5.245.5.074 0 .184.262.244.583.061.321.175.583.256.583.08 0 .195.225.255.5.061.275.173.5.25.5.077 0 .19.225.25.5.061.275.171.5.246.5.074 0 .182.188.239.417.058.229.169.417.247.417.078 0 .236.337.352.75.115.412.267.75.337.75.069 0 .175.206.234.458.117.503.613 1.575.79 1.71.062.047.164.291.227.542.063.251.175.456.25.456.074 0 .185.225.245.5s.173.5.25.5c.077 0 .19.225.25.5s.173.5.25.5c.077 0 .19.225.25.5s.179.5.263.5c.085 0 .154.132.155.292.001.16.186.667.412 1.125.225.458.412.927.415 1.042.003.114.074.208.158.208.085 0 .203.225.264.5.06.275.173.5.25.5.077 0 .189.225.25.5.06.275.173.5.25.5.077 0 .189.225.25.5.06.275.17.5.244.5.075 0 .184.263.245.583.06.321.175.584.255.584.08 0 .195.225.256.5.06.275.179.5.263.5.084 0 .153.082.153.183 0 .283.888 2.15 1.022 2.15.065 0 .169.23.231.511s.217.713.345.959c.129.245.234.54.235.655 0 .115.076.208.167.208.092 0 .167.103.167.228 0 1.563 2.751 1.345 3.259-.258.053-.166.161-.303.239-.303.078 0 .192-.225.252-.5s.171-.5.245-.5c.075 0 .187-.205.25-.457.063-.251.166-.495.228-.541.175-.132 1.027-1.897 1.027-2.129 0-.114.069-.206.153-.206.085 0 .203-.225.264-.5.06-.275.17-.5.244-.5.075 0 .184-.263.245-.584.06-.321.175-.583.255-.583.08 0 .195-.225.256-.5.06-.275.173-.5.25-.5.077 0 .189-.225.25-.5.06-.275.173-.5.25-.5.077 0 .189-.225.25-.5.06-.275.173-.5.25-.5.077 0 .189-.225.25-.5.06-.275.169-.5.241-.5.073 0 .227-.337.342-.75.115-.412.269-.75.342-.75.072 0 .181-.225.241-.5.061-.275.161-.5.224-.5s.298-.394.523-.875c.225-.481.457-.913.515-.958.059-.046.159-.365.222-.709.063-.343.185-.625.271-.625.085 0 .203-.187.26-.416.058-.229.172-.417.253-.417.082 0 .151-.094.154-.208.003-.115.19-.584.415-1.042.226-.458.411-.927.412-1.042.001-.114.07-.208.155-.208.084 0 .203-.225.263-.5s.173-.5.25-.5c.077 0 .19-.225.25-.5s.173-.5.25-.5c.077 0 .19-.225.25-.5s.171-.5.245-.5c.075 0 .187-.205.25-.457.063-.251.165-.495.227-.541.177-.135.673-1.208.79-1.71.059-.252.162-.459.23-.459.067 0 .212-.3.322-.666.109-.367.265-.667.346-.667.081 0 .196-.225.257-.5.06-.275.173-.5.25-.5.077 0 .189-.225.25-.5.06-.275.173-.5.25-.5.077 0 .189-.225.25-.5.06-.275.173-.5.25-.5.077 0 .189-.225.25-.5.06-.275.173-.5.25-.5.077 0 .189-.225.25-.5.06-.275.179-.5.263-.5.084 0 .155-.094.156-.208.002-.115.261-.728.576-1.362.316-.634.62-1.365.678-1.625.057-.259.166-.472.243-.472.077 0 .19-.225.25-.5.061-.275.173-.5.25-.5.077 0 .19-.225.25-.5.061-.275.178-.5.26-.5.083 0 .198-.187.255-.416.058-.229.172-.417.253-.417.082 0 .151-.094.153-.208.003-.115.303-.808.667-1.54.364-.732.662-1.426.662-1.542 0-.115.069-.21.154-.21.084 0 .203-.225.263-.5s.173-.5.25-.5c.077 0 .19-.225.25-.5s.171-.5.245-.5c.074 0 .184-.262.244-.583.06-.321.175-.584.255-.584.081 0 .196-.225.256-.5s.173-.5.25-.5c.077 0 .19-.225.25-.5s.173-.5.25-.5c.077 0 .19-.225.25-.5s.176-.5.257-.5c.08 0 .236-.3.346-.666.11-.367.257-.667.327-.667s.176-.225.237-.5c.06-.275.173-.5.25-.5.077 0 .189-.225.25-.5.06-.275.173-.5.25-.5.077 0 .189-.225.25-.5.06-.275.173-.5.25-.5.077 0 .189-.225.25-.5.06-.275.17-.5.244-.5.075 0 .184-.263.245-.583.06-.321.175-.584.255-.584.08 0 .195-.225.256-.5.06-.275.169-.5.241-.5.073 0 .227-.337.342-.75.115-.412.269-.75.342-.75.072 0 .181-.225.241-.5.061-.275.173-.5.25-.5.077 0 .19-.225.25-.5.346-1.574.417.382.417 11.5 0 13.077-.064 12.275.939 11.751.263-.137.604-.249.759-.25.156 0 .323-.067.374-.148.05-.082.373-.201.718-.265.345-.065.702-.177.793-.25.2-.159 1.419-.459 2.946-.726.611-.107 1.167-.251 1.236-.32.068-.069.416-.125.774-.125 1.416 0 1.294 1.087 1.294-11.548 0-10.685.12-13.952.512-13.952.071 0 .177-.219.235-.486.059-.267.215-.528.347-.578.132-.051.24-.169.24-.262 0-.258.545-.841.787-.841.117 0 .213-.062.213-.139 0-.139 1.633-1.027 1.889-1.027.524 0 .737-.731.331-1.137C131.978.12 118 .005 118 .411c0 .141-.067.256-.149.256-.081 0-.2.205-.263.456s-.165.495-.226.542c-.167.127-1.029 1.922-1.029 2.143 0 .106-.069.192-.153.192-.084 0-.203.225-.263.5-.061.275-.173.5-.25.5-.077 0-.19.225-.25.5-.061.275-.173.5-.25.5-.077 0-.19.225-.25.5-.061.275-.173.5-.25.5-.077 0-.19.225-.25.5-.061.275-.171.5-.246.5-.074 0-.186.205-.249.457-.064.251-.172.495-.241.541-.161.109-1.014 1.925-1.014 2.158 0 .098-.069.177-.154.177-.084 0-.203.225-.263.5s-.173.5-.25.5c-.077 0-.19.225-.25.5s-.173.5-.25.5c-.077 0-.19.225-.25.5s-.173.5-.25.5c-.077 0-.19.225-.25.5s-.171.5-.245.5c-.075 0-.187.206-.25.457s-.165.495-.227.542c-.167.127-1.028 1.922-1.028 2.143 0 .105-.069.192-.153.192-.085 0-.203.225-.264.5-.06.275-.173.5-.25.5-.077 0-.189.225-.25.5-.06.275-.173.5-.25.5-.077 0-.189.225-.25.5-.06.275-.173.5-.25.5-.077 0-.189.225-.25.5-.06.275-.17.5-.244.5-.075 0-.184.262-.245.583-.06.321-.175.583-.255.583-.08 0-.195.225-.256.5-.06.275-.169.5-.241.5-.073 0-.227.338-.342.75-.115.413-.267.75-.337.75s-.174.188-.231.417c-.058.229-.173.417-.255.417-.083 0-.2.225-.26.5-.061.275-.173.5-.25.5-.077 0-.19.225-.25.5-.061.275-.173.5-.25.5-.077 0-.19.225-.25.5-.061.275-.173.5-.25.5-.077 0-.19.225-.25.5-.061.275-.173.5-.25.5-.077 0-.19.225-.25.5-.061.275-.169.5-.242.5-.072 0-.226.337-.342.75-.115.412-.273.75-.351.75-.078 0-.189.187-.247.416-.057.23-.165.417-.24.417-.074 0-.185.225-.245.5s-.173.5-.25.5c-.077 0-.19.225-.25.5s-.173.5-.25.5c-.077 0-.19.225-.25.5s-.173.5-.25.5c-.077 0-.19.225-.25.5s-.173.5-.25.5c-.077 0-.19.225-.25.5s-.169.5-.242.5c-.072 0-.226.338-.341.75-.116.413-.274.75-.352.75-.078 0-.189.188-.247.417-.057.229-.165.416-.239.416-.075 0-.185.225-.246.5-.06.275-.173.5-.25.5-.077 0-.189.225-.25.5-.06.275-.173.5-.25.5-.077 0-.189.225-.25.5-.06.275-.173.5-.25.5-.077 0-.189.225-.25.5-.06.275-.179.5-.263.5-.084 0-.156.094-.159.209-.002.114-.189.583-.415 1.041-.225.459-.41.927-.411 1.042-.001.115-.075.208-.165.208-.09 0-.211.188-.268.417-.058.229-.166.417-.24.417-.075 0-.185.225-.245.5-.061.275-.173.5-.25.5-.077 0-.19.225-.25.5-.061.275-.173.5-.25.5-.077 0-.19.225-.25.5-.061.275-.173.5-.25.5-.077 0-.19.225-.25.5-.061.275-.173.5-.25.5-.077 0-.19.225-.25.5-.061.275-.179.5-.264.5-.084 0-.161.131-.17.291-.009.161-.095.048-.191-.25-.095-.298-.232-.541-.303-.541-.071 0-.179-.225-.239-.5s-.173-.5-.25-.5c-.077 0-.19-.225-.25-.5s-.173-.5-.25-.5c-.077 0-.19-.225-.25-.5s-.173-.5-.25-.5c-.077 0-.19-.225-.25-.5s-.173-.5-.25-.5c-.077 0-.19-.225-.25-.5s-.177-.5-.26-.5c-.083 0-.197-.188-.255-.417-.057-.229-.162-.417-.231-.417-.07 0-.222-.337-.337-.75-.116-.412-.27-.75-.342-.75-.073 0-.181-.225-.242-.5-.06-.275-.173-.5-.25-.5-.077 0-.189-.225-.25-.5-.06-.275-.173-.5-.25-.5-.077 0-.189-.225-.25-.5-.06-.275-.173-.5-.25-.5-.077 0-.189-.225-.25-.5-.06-.275-.173-.5-.25-.5-.077 0-.189-.225-.25-.5-.06-.275-.177-.5-.26-.5-.082 0-.197-.187-.255-.416-.057-.229-.171-.417-.253-.417-.081 0-.149-.094-.15-.208-.001-.115-.186-.584-.411-1.042-.226-.458-.413-.927-.415-1.042-.003-.114-.075-.208-.159-.208s-.203-.225-.263-.5c-.061-.275-.173-.5-.25-.5-.077 0-.19-.225-.25-.5-.061-.275-.173-.5-.25-.5-.077 0-.19-.225-.25-.5-.061-.275-.16-.502-.222-.503-.061-.002-.299-.413-.528-.914-.229-.5-.473-.911-.542-.913-.069-.002-.126-.097-.127-.212 0-.114-.186-.583-.411-1.041-.225-.459-.412-.927-.415-1.042-.003-.115-.074-.208-.159-.208-.084 0-.203-.225-.263-.5s-.173-.5-.25-.5c-.077 0-.19-.225-.25-.5s-.173-.5-.25-.5c-.077 0-.19-.225-.25-.5s-.171-.5-.245-.5c-.075 0-.183-.188-.24-.417-.058-.229-.172-.417-.255-.417-.083 0-.2-.225-.26-.5s-.179-.5-.263-.5c-.085 0-.153-.093-.151-.208.003-.236-2.84-5.995-3.024-6.127-.065-.046-.17-.29-.234-.541-.063-.252-.175-.457-.249-.457-.075 0-.185-.225-.246-.5-.06-.275-.179-.5-.263-.5-.084 0-.153-.102-.153-.226 0-.287-2.274-4.801-2.484-4.931-.086-.053-.208-.302-.271-.553-.063-.251-.176-.457-.25-.457-.075 0-.185-.225-.245-.5-.061-.275-.167-.5-.237-.5-.07 0-.217-.3-.327-.666-.11-.367-.266-.667-.346-.667-.081 0-.197-.225-.257-.5s-.173-.5-.25-.5c-.077 0-.19-.225-.25-.5S67.077 7 67 7c-.077 0-.19-.225-.25-.5s-.173-.5-.25-.5c-.077 0-.19-.225-.25-.5s-.171-.5-.245-.5c-.074 0-.184-.263-.244-.583-.06-.321-.175-.584-.255-.584-.081 0-.196-.225-.256-.5s-.169-.5-.242-.5c-.072 0-.226-.337-.341-.75-.116-.412-.27-.75-.342-.75-.073 0-.18-.218-.239-.486-.058-.267-.233-.544-.388-.616-.291-.134-15.62-.239-15.99-.11m109.959 11.355c0 .079-.768.196-1.705.26-.938.065-1.744.177-1.792.25-.048.072-.499.183-1.003.245-.988.122-2.925.652-3.776 1.033-.288.13-.645.236-.791.236-.147 0-.267.067-.267.149 0 .081-.206.196-.458.255-.485.114-1.568.609-1.708.782-.046.056-.252.155-.459.219-.206.065-.375.181-.375.26 0 .078-.225.191-.5.252-.275.06-.5.179-.5.263 0 .084-.076.153-.17.153-.243 0-1.512.84-1.947 1.288-.202.209-.44.379-.529.379-.089 0-.386.225-.661.5s-.552.5-.615.5c-.149 0-3.078 2.93-3.078 3.079 0 .062-.225.338-.5.613-.275.275-.5.565-.5.644 0 .079-.227.392-.506.695-.278.304-.547.716-.598.915-.051.2-.198.404-.327.453a.397.397 0 00-.235.346c0 .14-.075.255-.167.255-.092 0-.167.107-.167.238s-.102.341-.228.466c-.125.126-.28.393-.344.595-.064.202-.181.368-.259.368-.078 0-.192.225-.252.5s-.173.5-.25.5c-.077 0-.189.224-.25.498-.06.274-.178.541-.263.593-.084.052-.154.231-.154.397 0 .33-.347.286 5.25.672 1.467.101 2.824.263 3.015.359.635.319 1.296.121 1.46-.436.081-.275.209-.623.284-.773.076-.15.232-.731.348-1.291.115-.561.262-1.019.325-1.019s.164-.263.224-.584c.06-.321.173-.583.25-.583.077 0 .19-.262.25-.583.06-.321.175-.584.255-.584.081 0 .196-.225.256-.5s.179-.5.263-.5c.085 0 .154-.07.154-.156 0-.654 4.097-5.51 4.649-5.51.073 0 .268-.15.434-.334.166-.183.403-.333.526-.333s.224-.075.224-.167c0-.091.115-.166.255-.166a.4.4 0 00.347-.24c.051-.132.311-.288.579-.347.267-.058.486-.176.486-.26 0-.084.131-.154.291-.156.309-.002 1.334-.336 1.641-.534.101-.065.513-.169.917-.233.404-.063.775-.176.825-.252.05-.076.744-.188 1.542-.249.798-.062 1.45-.176 1.45-.254 0-.078 1.05-.142 2.334-.142 1.283 0 2.333.064 2.333.143 0 .078.616.194 1.369.257.754.062 1.411.181 1.462.263.051.082.484.201.964.264.479.064.872.174.872.245 0 .07.375.218.833.328.458.11.833.261.833.337 0 .075.225.186.5.246.275.061.5.179.5.264 0 .084.115.153.256.153a.41.41 0 01.351.25c.052.137.201.25.329.25.129 0 .363.15.52.333.157.184.34.334.406.334.195 0 2.805 2.612 2.805 2.806 0 .098.104.237.232.31.128.074.351.396.497.717.284.627.624 1.199.792 1.333.057.046.157.327.221.625.065.298.177.542.25.542.073 0 .183.317.245.703.061.387.182.747.266.799.085.053.205.636.267 1.297.061.66.175 1.201.254 1.201.078 0 .143 1.391.143 3.092v3.091l1.041-.113c.573-.062 1.117-.169 1.209-.238.091-.068.616-.177 1.166-.242.55-.065 1.375-.229 1.834-.365 2.254-.671 3.09-.94 4.125-1.33l1.125-.424v-.736c0-.404-.067-.735-.148-.735-.081 0-.199-.413-.262-.917s-.174-.916-.247-.916c-.073 0-.174-.311-.225-.691-.051-.38-.164-.736-.251-.792-.088-.055-.212-.344-.276-.642-.065-.298-.187-.542-.271-.542-.085 0-.154-.087-.154-.192 0-.283-.835-2.001-1.103-2.268-.126-.127-.23-.33-.23-.451s-.113-.263-.25-.316c-.138-.053-.25-.179-.25-.281 0-.101-.225-.409-.5-.684-.275-.275-.5-.563-.5-.639 0-.179-2.826-3.002-3.005-3.002-.075 0-.361-.225-.636-.5s-.577-.5-.671-.5c-.094 0-.231-.094-.305-.209-.153-.239-.551-.503-1.383-.917-.321-.16-.622-.341-.668-.403-.047-.061-.291-.163-.542-.226-.251-.063-.457-.174-.457-.245 0-.072-.187-.178-.416-.235-.229-.058-.417-.173-.417-.255 0-.083-.225-.2-.5-.26-.275-.061-.5-.178-.5-.262 0-.083-.3-.199-.667-.258-.366-.058-.666-.172-.666-.252 0-.08-.132-.145-.292-.146-.16-.001-.506-.113-.769-.25s-.572-.249-.687-.249c-.115 0-.657-.143-1.205-.318a13.035 13.035 0 00-1.98-.439c-.541-.067-1.025-.185-1.076-.263-.05-.078-.969-.191-2.041-.253-1.073-.061-1.95-.175-1.95-.252 0-.078-1.35-.142-3-.142s-3 .065-3 .143m166.166-.001c0 .079-.804.195-1.786.258-.983.064-1.827.176-1.875.25-.049.074-.501.186-1.005.248-.923.114-3.031.669-3.506.923-.14.075-.497.19-.791.255-.295.064-.537.187-.537.271 0 .084-.17.153-.379.153s-.528.103-.709.229c-.18.126-.572.282-.87.347-.298.064-.542.181-.542.258 0 .077-.225.189-.5.25-.275.06-.5.179-.5.263 0 .084-.115.153-.255.153a.398.398 0 00-.345.235c-.05.13-.287.285-.527.345-.239.06-.639.254-.888.431-.249.178-.535.323-.635.323-.101 0-.185.056-.187.125-.003.068-.303.308-.667.533-.364.225-.662.469-.662.542 0 .073-.096.133-.213.133-.117 0-.337.131-.489.292-.151.16-.588.554-.969.875-1.241 1.043-3.824 3.696-3.836 3.94-.004.079-.229.327-.5.552-.272.225-.493.506-.493.625s-.074.216-.164.216c-.09 0-.209.182-.265.405-.056.222-.207.445-.336.494a.397.397 0 00-.235.346c0 .14-.074.255-.164.255-.09 0-.21.188-.268.417-.057.229-.168.416-.246.416-.078 0-.232.3-.342.667-.11.367-.257.667-.327.667s-.176.225-.237.5c-.06.275-.173.5-.25.5-.077 0-.193.243-.258.541-.065.298-.221.69-.346.871a1.46 1.46 0 00-.229.708c0 .209-.072.38-.161.38-.088 0-.211.375-.271.833-.061.458-.171.833-.244.833-.073 0-.186.432-.251.959-.065.527-.186 1.002-.268 1.055-.083.053-.197 1.125-.254 2.381-.057 1.257-.166 2.324-.244 2.371-.183.114-.183 1.734.001 1.734.077 0 .187 1.025.244 2.278.056 1.253.171 2.322.255 2.375.084.054.207.566.273 1.139.066.573.179 1.042.251 1.042.072 0 .182.337.244.75.061.412.174.75.25.75.075 0 .188.337.25.75.061.412.177.75.255.75.079 0 .193.225.253.5.061.275.173.5.25.5.077 0 .19.225.25.5.061.275.179.5.264.5.084 0 .153.092.153.206 0 .307.866 1.96 1.027 1.96.077 0 .14.115.14.256 0 .14.105.295.235.345.129.05.28.272.336.495.056.222.175.404.265.404.09 0 .164.088.164.195 0 .107.111.313.248.458.98 1.041 1.918 2.159 1.918 2.286 0 .161 1.197 1.292 1.834 1.732.32.222.768.611.995.866.227.255.474.463.55.463.075 0 .302.175.504.388.202.213.499.435.659.495.16.059.292.176.292.261 0 .084.187.201.416.258.23.058.417.178.417.268 0 .09.072.164.159.164.152 0 1.204.644 1.618.991.107.089.388.21.625.27.237.059.431.169.431.243 0 .075.225.185.5.246.275.06.5.173.5.25 0 .077.225.189.5.25.275.06.5.179.5.263 0 .084.132.154.292.154.16.001.501.111.757.244.256.134.725.292 1.042.351.317.059.576.165.576.235 0 .07.29.173.645.23.354.057.853.211 1.109.344.255.133.959.293 1.564.357.604.064 1.139.178 1.188.255.049.076.818.189 1.709.252.89.063 1.618.178 1.618.256 0 .078 1.5.142 3.334.142 1.833 0 3.333-.065 3.333-.145 0-.08.75-.199 1.667-.264.916-.065 1.666-.187 1.666-.271 0-.084.198-.153.439-.153.667 0 2.561-.376 2.561-.508 0-.064.375-.166.834-.227.458-.06.833-.174.833-.253 0-.078.262-.191.583-.251.321-.061.584-.172.584-.248 0-.075.3-.185.666-.244.367-.059.667-.175.667-.258 0-.083.225-.201.5-.261.275-.061.5-.173.5-.25 0-.077.225-.19.5-.25.275-.061.5-.174.5-.252 0-.079.169-.195.375-.26.206-.064.412-.163.458-.219.046-.057.515-.315 1.042-.574.527-.259.958-.54.958-.625 0-.084.078-.154.174-.154.22 0 1.2-.682 1.376-.958.074-.115.214-.208.311-.208.098 0 .469-.3.825-.667.356-.367.719-.667.806-.667.211 0 2.842-2.644 2.842-2.856 0-.091.225-.355.5-.586.275-.231.5-.493.5-.58 0-.088.169-.325.377-.527s.489-.592.625-.867.341-.599.456-.721c.115-.121.208-.319.208-.44s.113-.264.25-.316a.41.41 0 00.25-.351c0-.141.069-.256.154-.256.084 0 .203-.225.263-.5s.173-.5.25-.5c.077 0 .19-.225.25-.5s.175-.5.256-.5c.08 0 .195-.262.255-.583.06-.321.17-.583.244-.583.074 0 .187-.244.251-.542.064-.298.179-.62.256-.717.077-.096.236-.677.352-1.291.117-.615.262-1.117.324-1.117.061 0 .166-.544.232-1.208.066-.665.205-1.262.308-1.328.133-.083.189-1.436.189-4.547 0-3.112-.056-4.465-.189-4.548-.103-.065-.242-.663-.308-1.327-.066-.665-.171-1.209-.232-1.209-.062 0-.207-.502-.324-1.116-.116-.614-.275-1.196-.352-1.292-.077-.096-.192-.419-.256-.717s-.177-.541-.251-.541c-.074 0-.184-.263-.244-.584-.06-.321-.175-.583-.255-.583-.081 0-.196-.225-.256-.5s-.173-.5-.25-.5c-.077 0-.188-.219-.247-.486s-.215-.528-.347-.578a.403.403 0 01-.239-.347c0-.141-.075-.256-.167-.256-.092 0-.167-.107-.167-.238s-.093-.337-.208-.458c-.115-.121-.318-.433-.452-.693a4.895 4.895 0 00-.625-.884c-.21-.226-.381-.455-.381-.51 0-.055-.263-.355-.584-.666-.321-.312-.583-.639-.583-.727 0-.183-2.343-2.49-2.528-2.49-.068 0-.378-.263-.689-.584-.312-.321-.625-.583-.697-.583-.072 0-.305-.187-.517-.417-.213-.229-.453-.416-.535-.416-.082 0-.285-.15-.451-.334-.166-.183-.402-.333-.525-.333-.124 0-.225-.057-.225-.127 0-.13-.127-.21-1.263-.79-.359-.183-.691-.37-.737-.416-.046-.046-.458-.271-.916-.5-.459-.229-.859-.473-.889-.542-.031-.069-.143-.125-.25-.126-.107-.001-.396-.106-.642-.234a4.63 4.63 0 00-.958-.346c-.281-.062-.511-.173-.511-.247 0-.074-.272-.186-.604-.248-.332-.062-.726-.179-.875-.26-.484-.261-2.58-.817-3.521-.933-.505-.062-.956-.173-1.004-.245-.048-.073-.854-.185-1.791-.25-.938-.064-1.705-.181-1.705-.26 0-.078-1.313-.143-2.917-.143-1.604 0-2.917.064-2.917.142m33.459 1.468c-.252.044-.459.149-.459.235 0 .085-.083.155-.186.155-.234 0-1.48 1.235-1.48 1.467 0 .095-.094.203-.208.241-.294.098-.295 3.485-.001 3.584a.32.32 0 01.209.28c0 .266.566.928.793.928.094 0 .214.113.267.25.053.138.204.25.337.25.133 0 .273.094.311.209.05.148.563.208 1.792.208 1.23 0 1.742-.06 1.791-.208.039-.115.157-.209.264-.209.27 0 1.445-1.275 1.445-1.567 0-.131.09-.268.2-.305.251-.084.263-2.943.013-3.103-.092-.059-.226-.293-.297-.518-.425-1.362-2.692-2.259-4.791-1.897m-164.367.807c-.061.412-.174.75-.25.75-.075 0-.188.338-.25.75-.061.412-.176.75-.254.75-.078 0-.195.319-.26.708-.065.39-.172.746-.238.792-.143.1-1.006 2.753-1.006 3.094 0 .131-.067.239-.148.239-.081 0-.198.338-.26.75-.062.413-.175.75-.25.75-.076 0-.188.338-.25.75-.062.413-.173.75-.247.75-.173 0-.341 1.232-.227 1.668.231.883.968.453 3.429-2.001 1.286-1.283 2.406-2.333 2.487-2.333.082 0 .322-.188.534-.417.213-.229.468-.417.567-.417.1 0 .241-.093.315-.208.073-.115.564-.431 1.091-.702.527-.272.959-.548.959-.612 0-.065.225-.167.5-.228.275-.06.5-.17.5-.244 0-.075.262-.184.583-.245.321-.06.583-.172.583-.249 0-.077.338-.191.75-.253.413-.062.75-.18.75-.263 0-.083.375-.201.834-.261.458-.061.833-.171.833-.245 0-.073.6-.186 1.333-.25.734-.064 1.334-.181 1.334-.261 0-.355 18.975-.17 19.333.188.34.34.458 1 .18 1-.084 0-.202.219-.26.486-.059.267-.215.528-.347.578a.393.393 0 00-.24.334c0 .132-.059.266-.132.296-.072.031-.353.356-.624.723-.27.366-.586.726-.701.8-.115.073-.209.21-.209.304s-.225.396-.5.671-.5.567-.5.648c0 .082-.227.395-.505.696-.759.823-.9.996-1.332 1.631-.218.321-.494.643-.613.716-.119.074-.217.21-.217.303s-.186.37-.414.616c-1.221 1.319-1.587 1.762-1.593 1.93-.004.101-.229.369-.5.594-.271.224-.495.487-.497.583-.003.164-.622.93-1.578 1.955-.23.247-.418.524-.418.617 0 .093-.096.229-.214.302-.118.074-.383.359-.588.634-.613.819-1.262 1.623-1.573 1.946-.16.167-.292.373-.292.458 0 .084-.225.378-.5.653s-.5.566-.5.646c0 .08-.221.33-.493.554-.271.225-.496.471-.5.546-.006.132-.698 1.029-1.465 1.902-.206.235-.378.509-.382.611-.004.101-.229.368-.5.593-.271.224-.496.487-.5.583-.004.096-.229.358-.5.583-.271.225-.493.473-.493.551 0 .078-.225.381-.499.674-.275.293-.5.612-.5.707-.001.096-.223.359-.494.584-.271.225-.496.499-.5.609-.004.11-.106.26-.228.333-.121.073-.402.396-.625.717-.222.32-.498.643-.612.716-.115.074-.209.209-.209.301s-.224.407-.499.7c-.274.293-.499.583-.5.645 0 .062-.226.337-.501.612-.275.275-.5.566-.5.646 0 .08-.221.329-.493.554-.271.225-.496.492-.5.594-.003.102-.25.453-.548.78-.981 1.076-1.292 1.477-1.299 1.674-.004.107-.229.378-.5.603-.271.225-.493.474-.493.552 0 .079-.188.345-.418.592-.873.937-1.574 1.786-1.578 1.911-.002.072-.221.343-.485.601-.265.259-.53.624-.59.813-.06.188-.218.384-.352.435-.134.051-.247.19-.251.307-.004.118-.229.398-.5.623-.271.224-.493.478-.493.564 0 .085-.17.314-.377.508a7.074 7.074 0 00-.785.935c-.224.321-.729.891-1.123 1.267-.393.376-.715.74-.715.81 0 .069-.414.54-.919 1.046-.506.506-1.048 1.135-1.203 1.399-.156.263-.336.478-.4.478-.065 0-.167.225-.228.5-.06.275-.179.5-.263.5-.269 0-.17.958.11 1.066.665.255 51.07.108 51.07-.149 0-.138.07-.25.156-.25.087 0 .208-.338.269-.75.062-.413.173-.75.246-.75.073 0 .185-.306.248-.68.063-.374.218-.879.343-1.121.126-.242.277-.761.336-1.153.058-.392.166-.713.24-.713.073 0 .183-.299.245-.665.062-.367.175-.705.25-.751.076-.047.189-.385.25-.751.062-.366.174-.666.249-.666.075 0 .188-.375.251-.833.063-.458.176-.871.251-.918.076-.046.188-.384.249-.75.062-.366.171-.666.243-.666.17 0 .334-1.238.222-1.667-.221-.847-1.15-.447-2.715 1.167-.799.825-1.535 1.5-1.635 1.5-.1 0-.241.101-.315.225-.073.124-.452.434-.841.689-.39.255-.709.529-.709.608 0 .08-.115.145-.255.145a.41.41 0 00-.351.25c-.053.137-.195.25-.316.25s-.32.095-.441.21a3.094 3.094 0 01-.637.416c-.537.264-1.06.594-1.168.736-.047.061-.291.163-.542.226-.251.063-.456.182-.456.263 0 .082-.094.15-.209.151-.114 0-.583.186-1.041.411-.459.225-.927.412-1.042.415-.115.003-.208.074-.208.157 0 .084-.3.203-.667.265-.367.062-.667.18-.667.263 0 .082-.3.198-.666.256-.367.059-.667.17-.667.247 0 .076-.375.189-.833.25-.459.061-.834.168-.834.239 0 .071-.468.183-1.041.249s-1.095.204-1.161.308c-.135.213-17.439.384-19.252.19-1.014-.108-1.041-.124-1.2-.7-.182-.66.174-2.029.59-2.269.127-.073.231-.208.231-.299 0-.092.188-.34.417-.553.229-.212.416-.473.416-.58 0-.107.11-.237.244-.288.134-.052.293-.249.353-.438s.288-.509.506-.712c.219-.202.397-.45.397-.551 0-.101.145-.261.322-.356.178-.095.374-.334.437-.532.062-.198.292-.525.511-.727.218-.203.397-.456.397-.563 0-.107.11-.237.244-.288.134-.051.29-.24.347-.42.091-.288.3-.548 1.33-1.657.135-.145.246-.313.246-.373 0-.106.374-.596.791-1.036.115-.121.209-.302.209-.403 0-.101.109-.226.243-.278.134-.051.291-.24.348-.42.091-.287.3-.547 1.33-1.656.135-.146.245-.352.245-.459 0-.107.057-.195.125-.195.069-.001.31-.282.536-.625.226-.343.509-.737.63-.874.545-.621.935-1.115 1.183-1.5.148-.229.364-.477.481-.55a.498.498 0 00.212-.375c0-.133.056-.242.125-.243.069 0 .312-.282.54-.625.228-.343.51-.684.625-.757.116-.073.21-.225.21-.338 0-.112.215-.393.478-.624.263-.23.528-.578.589-.771.062-.194.222-.395.356-.446.134-.052.244-.181.244-.288 0-.107.187-.369.416-.581.23-.212.417-.453.417-.535 0-.082.15-.284.333-.45.184-.166.334-.403.334-.526s.076-.224.17-.224c.094 0 .262-.207.374-.459.112-.252.41-.643.663-.87.253-.227.459-.474.459-.55 0-.075.188-.311.417-.523.229-.213.417-.455.417-.539 0-.083.15-.28.333-.437.183-.157.333-.399.333-.537 0-.139.065-.252.145-.252.079 0 .353-.315.607-.699.521-.787.653-.956 1.258-1.598.234-.249.476-.584.536-.745.061-.16.183-.291.271-.291.089 0 .212-.162.275-.36.063-.197.293-.525.511-.727.219-.203.397-.437.397-.52 0-.084.132-.271.292-.416.16-.144.442-.473.625-.731.183-.257.413-.549.509-.649.097-.099.226-.312.287-.472.061-.161.183-.292.271-.292.088 0 .209-.154.269-.342.096-.301.303-.561 1.335-1.672.135-.145.246-.351.246-.458 0-.107.056-.195.125-.196.068 0 .309-.282.535-.625.226-.343.51-.736.63-.874.545-.621.935-1.115 1.183-1.5.148-.229.364-.476.481-.55a.495.495 0 00.212-.375c0-.133.057-.242.125-.242.069-.001.312-.282.54-.625.229-.344.51-.684.625-.758a.488.488 0 00.21-.366c0-.129.1-.294.221-.367.121-.073.403-.396.625-.717.222-.321.498-.643.613-.716.114-.074.208-.208.208-.299s.148-.325.33-.519c.181-.195.537-.661.791-1.035.254-.374.511-.718.572-.764.337-.257.338-1.363.001-1.677-.34-.316-.816-.323-23.001-.323h-22.655l-.113.75m55.183-.624c-.043.07-.131.408-.195.752-.065.344-.177.663-.251.708-.073.045-.184.382-.245.748-.062.366-.177.666-.255.666-.078 0-.192.338-.254.752s-.176.791-.253.839c-.077.047-.228.534-.336 1.081-.108.547-.256.995-.33.995-.075 0-.186.337-.248.75-.062.412-.174.75-.25.75-.075 0-.188.337-.25.75-.062.412-.172.75-.245.75-.073 0-.184.3-.246.666-.062.367-.185.667-.273.667-.09 0-.139.39-.111.875.066 1.146.82 1.36 1.598.452.646-.754 1.636-1.739 3.055-3.038.677-.62 1.35-1.239 1.495-1.375.145-.136.324-.247.398-.247.073 0 .296-.169.495-.375.2-.207.808-.6 1.353-.875.544-.275 1.028-.551 1.075-.612.047-.062.291-.163.542-.227.251-.063.456-.175.456-.249 0-.075.225-.185.5-.246.275-.06.5-.17.5-.244 0-.074.338-.185.75-.247.413-.062.75-.18.75-.263 0-.083.375-.201.834-.261.458-.061.833-.168.833-.239 0-.07.6-.181 1.333-.246.734-.065 1.334-.185 1.334-.267 0-.359 18.971-.178 19.333.184.34.34.458 1 .18 1-.084 0-.203.225-.263.5-.061.275-.179.5-.264.5-.084 0-.153.115-.153.255 0 .141-.11.298-.244.349-.134.051-.288.235-.343.409-.056.174-.321.536-.59.805-.269.269-.49.555-.49.635 0 .08-.221.33-.493.555-.271.225-.496.492-.5.594-.006.159-.486.748-1.425 1.745-.137.146-.248.346-.248.446 0 .1-.225.406-.5.681s-.5.566-.5.646c0 .08-.222.33-.493.554-.271.225-.498.484-.505.576-.006.092-.233.384-.503.649-.271.266-.536.622-.59.792-.054.17-.166.309-.25.309-.083 0-.261.213-.396.473a3.941 3.941 0 01-.668.875c-.232.221-.427.477-.433.569-.005.091-.232.35-.503.575-.271.225-.493.475-.493.555 0 .08-.225.37-.5.645s-.5.572-.5.66c0 .087-.225.379-.5.648s-.5.563-.5.653c0 .09-.099.224-.22.297-.122.073-.403.396-.625.717-.223.32-.498.643-.613.716-.115.074-.208.211-.208.305s-.225.396-.5.671-.501.55-.501.612c-.001.062-.226.352-.5.645-.275.293-.499.596-.499.674 0 .078-.222.326-.493.551-.271.225-.496.492-.5.594-.004.102-.251.45-.549.773a20.41 20.41 0 00-.958 1.13c-.229.297-.623.784-.875 1.082-.252.297-.459.592-.459.654 0 .063-.188.315-.417.562-.929.995-1.576 1.79-1.586 1.947-.006.092-.233.351-.504.576-.271.225-.493.494-.493.599 0 .105-.15.326-.333.492-.183.166-.337.384-.34.484-.004.101-.229.367-.5.592-.272.224-.493.474-.493.554 0 .08-.225.371-.5.646s-.504.588-.507.695c-.004.108-.229.38-.5.605-.272.224-.493.471-.493.547 0 .076-.225.358-.5.627s-.5.561-.5.648c0 .088-.225.385-.5.66s-.5.565-.5.645c0 .08-.222.33-.493.555-.271.225-.496.47-.5.545-.007.132-.699 1.03-1.466 1.902-.206.235-.378.51-.382.611-.004.101-.229.368-.5.593-.271.225-.493.472-.493.549 0 .078-.187.315-.416.527-.229.213-.417.468-.417.567 0 .1-.098.241-.217.315-.119.073-.394.395-.612.716-.217.321-.757.926-1.2 1.344-.442.418-.804.82-.804.894 0 .074-.282.41-.625.746-.344.337-.846.909-1.116 1.272-.27.364-.589.721-.708.794a.495.495 0 00-.218.375c0 .133-.074.242-.163.242-.09 0-.211.187-.269.417-.057.229-.171.416-.253.416-.266 0-.162.959.115 1.066.665.255 51.07.108 51.07-.149 0-.138.07-.25.156-.25.087 0 .208-.338.269-.75.062-.412.173-.75.246-.75.073 0 .184-.3.246-.666.061-.366.172-.703.245-.748.074-.045.186-.364.251-.709.064-.345.177-.702.25-.794.073-.091.229-.598.345-1.125.116-.527.266-.958.333-.958s.172-.337.234-.75c.061-.413.174-.75.25-.75.075 0 .188-.337.25-.75.061-.413.178-.75.258-.75.081 0 .197-.337.259-.75s.174-.75.25-.75c.192 0 .381-1.393.247-1.817-.276-.869-1.158-.485-2.826 1.234-.846.87-1.593 1.583-1.66 1.583-.066 0-.361.225-.654.5-.293.276-.664.543-.824.595-.16.052-.292.164-.292.25 0 .085-.115.155-.255.155a.398.398 0 00-.345.235c-.05.129-.273.281-.495.336-.223.056-.405.176-.405.266 0 .089-.115.163-.255.163a.401.401 0 00-.347.24c-.051.132-.311.288-.578.346-.268.059-.486.17-.486.247 0 .077-.225.19-.5.25-.275.061-.5.179-.5.264 0 .084-.098.153-.218.153s-.734.26-1.365.577c-.631.317-1.358.623-1.615.68-.258.056-.469.167-.469.246 0 .079-.338.194-.75.256-.413.062-.75.176-.75.254 0 .078-.375.192-.833.253-.459.061-.834.168-.834.239 0 .071-.468.183-1.041.249s-1.095.204-1.161.308c-.248.393-19.899.252-20.212-.145-.301-.383-.255-1.944.06-2.049a.291.291 0 00.188-.257c0-.183.505-.866 1.078-1.458.14-.146.255-.324.255-.398 0-.073.179-.299.397-.502.219-.202.446-.522.507-.712.06-.189.218-.386.352-.437a.405.405 0 00.244-.349c0-.14.065-.255.145-.255.079 0 .353-.319.608-.708.255-.39.565-.769.689-.842.124-.073.225-.215.225-.314 0-.1.178-.347.397-.549.218-.203.446-.523.506-.712.06-.189.219-.386.353-.438.134-.051.244-.174.244-.273 0-.099.187-.354.416-.566.23-.212.417-.46.417-.55 0-.089.15-.299.333-.465.184-.166.334-.387.334-.492 0-.104.221-.374.493-.599.271-.225.496-.491.5-.591.003-.101.157-.318.34-.484.183-.166.333-.369.333-.451 0-.082.188-.322.417-.535.229-.212.417-.473.417-.58 0-.107.109-.237.243-.288.134-.052.292-.244.35-.428.108-.341.154-.401 1.162-1.533.318-.357.578-.717.578-.8 0-.083.188-.325.417-.537.229-.213.416-.474.416-.581 0-.107.11-.237.244-.288.134-.051.289-.235.344-.409.055-.174.312-.55.572-.836.816-.899 1.007-1.146 1.007-1.305 0-.084.225-.379.5-.654s.5-.564.5-.642c0-.078.131-.266.292-.418.346-.327.505-.524 1.049-1.299.225-.321.503-.643.617-.716a.5.5 0 00.209-.375c0-.133.062-.242.138-.242.076 0 .245-.206.375-.458s.443-.644.695-.871c.252-.226.458-.508.458-.625 0-.117.057-.213.125-.214.069 0 .312-.282.54-.625.229-.343.51-.684.625-.757a.496.496 0 00.21-.375c0-.133.057-.242.125-.242.069 0 .35-.336.625-.746.275-.411.557-.748.625-.75.069-.002.125-.099.125-.217 0-.117.215-.401.478-.632.263-.23.528-.578.59-.771.061-.194.221-.395.355-.446a.407.407 0 00.244-.349c0-.14.061-.255.135-.255.151 0 1.217-1.426 1.401-1.875.066-.161.192-.292.281-.292.088 0 .213-.166.277-.368.064-.202.332-.556.595-.787.263-.231.478-.481.478-.557 0-.075.187-.311.416-.523.23-.213.417-.474.417-.581 0-.107.11-.237.244-.288.134-.051.291-.244.349-.428.059-.184.216-.458.349-.609.926-1.053 1.384-1.627 1.387-1.742.003-.073.179-.298.392-.5.213-.202.435-.498.495-.659.059-.16.179-.291.268-.291.088 0 .207-.147.264-.327.096-.303.598-.962 1.294-1.698.16-.17.291-.378.291-.463 0-.084.225-.378.5-.653s.5-.577.5-.672c0-.094.094-.231.209-.304.267-.171.958-1.154.958-1.363 0-.087.082-.187.183-.22.326-.109.408-1.634.089-1.634-.15 0-.272-.075-.272-.166 0-.198-45.269-.239-45.392-.041m111.775 1.135c.073.132.21.239.304.239.851 0 1.533 2.223 1.031 3.361-.255.578-.551.849-.551.504 0-.075-.135-.281-.3-.459-.501-.539-.559-.888-.197-1.198 1.076-.921.024-2.208-1.805-2.208-1.208 0-1.387-.186-.529-.552.408-.173 1.902.055 2.047.313m-30.716.381c0 .078.656.192 1.458.254.802.061 1.483.185 1.514.274.03.09.218.163.417.163.439-.001 3.16.842 3.279 1.016.047.069.291.176.542.239.251.063.456.176.456.25 0 .075.219.184.486.242.268.059.528.215.579.347.05.132.172.24.27.24.197 0 .208.007 1.434 1.035a93.71 93.71 0 001.375 1.13c.288.228.523.483.523.566 0 .083.262.407.583.718.321.312.584.678.584.814 0 .136.096.284.214.329.117.045.397.418.621.828.224.411.46.746.523.746s.165.225.225.5.173.5.25.5c.077 0 .19.225.25.5s.175.5.256.5c.08 0 .195.263.255.584.06.32.173.583.25.583.077 0 .19.262.25.583.06.321.167.584.238.584.07 0 .225.6.345 1.333.119.733.272 1.333.339 1.333.068 0 .176.507.241 1.125.064.619.182 1.208.263 1.309.081.101.195 1.095.255 2.209.06 1.113.173 2.024.25 2.024.078 0 .141 1.537.141 3.417 0 1.879-.063 3.416-.141 3.416-.078 0-.192.951-.254 2.113-.062 1.163-.177 2.194-.255 2.292-.078.098-.196.629-.262 1.179s-.179 1.075-.251 1.166c-.072.092-.227.711-.344 1.375-.117.665-.267 1.209-.334 1.209s-.171.262-.231.583c-.06.321-.173.583-.25.583-.077 0-.19.263-.25.584-.06.32-.175.583-.255.583-.081 0-.196.225-.256.5s-.173.5-.25.5c-.077 0-.19.225-.25.5s-.179.5-.263.5c-.085 0-.154.101-.154.224 0 .198-.152.424-.83 1.227-.093.111-.17.272-.17.358 0 .086-.186.333-.413.549-.228.215-.416.456-.417.535-.006.279-2.99 2.94-3.297 2.94-.094 0-.214.113-.266.25a.41.41 0 01-.351.25c-.141 0-.256.067-.256.149 0 .082-.196.198-.436.258-.241.06-.546.219-.679.352a.922.922 0 01-.563.241c-.177 0-.322.063-.322.141 0 .077-.318.235-.708.35-.39.116-.783.269-.875.341-.092.072-.504.185-.917.252-.412.066-.829.184-.925.262-.097.078-.791.192-1.542.255s-1.366.178-1.366.257c0 .078-1.275.142-2.833.142-1.559 0-2.834-.065-2.834-.145 0-.08-.675-.198-1.5-.262-.825-.065-1.5-.182-1.5-.262 0-.079-.356-.197-.791-.262-.436-.064-.942-.212-1.125-.327-.184-.115-.577-.26-.875-.322-.298-.062-.542-.176-.542-.253 0-.077-.225-.19-.5-.25s-.5-.173-.5-.25c0-.077-.219-.188-.486-.247s-.528-.215-.578-.347a.403.403 0 00-.347-.239c-.141 0-.256-.07-.256-.156 0-.085-.156-.205-.348-.266-.438-.139-3.589-3.286-3.728-3.723-.057-.179-.213-.367-.347-.418-.134-.051-.243-.2-.243-.331s-.113-.281-.25-.333a.41.41 0 01-.25-.351c0-.141-.063-.256-.141-.256-.077 0-.23-.3-.34-.666-.109-.367-.271-.667-.359-.667-.088 0-.163-.094-.166-.208-.003-.115-.151-.509-.328-.875-.177-.367-.324-.761-.327-.875-.003-.115-.076-.209-.162-.209-.087 0-.208-.337-.269-.75-.062-.412-.177-.75-.255-.75-.078 0-.192-.375-.252-.833-.061-.458-.169-.833-.24-.833-.071 0-.182-.469-.248-1.042-.066-.573-.184-1.083-.263-1.133-.079-.05-.194-.762-.255-1.583-.062-.821-.192-1.544-.29-1.608-.242-.157-.235-10.616.007-10.773.095-.061.227-.785.292-1.609.066-.823.18-1.536.254-1.583.074-.047.189-.555.255-1.128.066-.573.177-1.041.248-1.041.071 0 .179-.375.24-.834.06-.458.173-.833.25-.833.077 0 .187-.3.246-.667.059-.366.172-.666.253-.666.08 0 .195-.263.255-.584.061-.321.181-.583.269-.583.087 0 .159-.095.159-.211 0-.116.14-.472.31-.791a7.31 7.31 0 00.437-.985c.121-.384.235-.559.711-1.09.115-.128.209-.315.209-.416 0-.101.109-.226.243-.278.134-.051.291-.24.348-.419.103-.328 3.001-3.31 3.215-3.31.062 0 .3-.169.529-.376.228-.207.602-.469.831-.583.539-.266 1.061-.595 1.169-.736.046-.062.29-.163.541-.227.252-.063.457-.169.457-.236 0-.067.416-.222.924-.344.509-.122.961-.279 1.004-.35.044-.071.434-.181.868-.245.433-.064.829-.18.88-.259.051-.079.783-.192 1.625-.252.843-.06 1.532-.172 1.532-.25 0-.078 1.088-.142 2.417-.142 1.329 0 2.417.064 2.417.142m27.5.525c0 .091.112.166.25.166.463 0 .355 3.101-.113 3.223-.457.119-.637.009-.637-.389 0-.173-.075-.36-.167-.417-.209-.129-.222-1.75-.013-1.75.084 0 .203-.225.263-.5.101-.462.417-.714.417-.333m2.301.884c-.095.666-.635.557-.635-.128 0-.556.026-.587.344-.418.219.118.324.315.291.546m-.135 2.27c0 .099-.112.179-.25.179-.157 0-.25-.159-.25-.429 0-.381.028-.4.25-.178.138.137.25.33.25.428m1.156.846c.693 0 .319.315-.601.506-.711.147-1.102.149-1.576.007-1.012-.303-.939-.513.178-.513.585 0 1.01-.073 1.01-.173 0-.119.1-.119.322 0 .178.095.478.173.667.173M123.018 35.69c-1.227.078-2.315.208-2.417.289-.101.08-.634.201-1.184.266-.55.066-1.094.197-1.209.291-.162.134-.208 2.536-.208 10.984 0 5.948-.064 10.813-.143 10.813-.078 0-.195.691-.258 1.535-.064.845-.177 1.613-.251 1.709-.074.095-.184.435-.244.756-.166.883-.805 2.374-1.184 2.761a4.008 4.008 0 00-.52.667c-.1.177-.331.398-.513.49-.181.092-.46.299-.62.458-.16.16-.398.291-.529.291s-.238.072-.238.159c0 .088-.263.208-.583.269-.321.06-.584.167-.584.238 0 .071-.15.168-.333.216-.456.119-.464 1.037-.011 1.279.413.221 2.625.226 2.761.006.066-.108 2.891-.167 7.927-.167 5.104 0 7.823.058 7.823.167 0 .281 2.708.203 3.308-.096.801-.4.619-1.738-.237-1.738-.131 0-.238-.069-.238-.153 0-.084-.225-.203-.5-.263-.275-.061-.5-.17-.5-.242 0-.073-.262-.31-.582-.529-.32-.218-.583-.492-.583-.61-.001-.117-.109-.255-.241-.305-.132-.051-.288-.311-.347-.578-.058-.268-.172-.486-.252-.486-.081 0-.196-.264-.256-.586-.06-.321-.174-.624-.253-.673-.078-.049-.192-.46-.252-.915-.061-.454-.169-.826-.242-.826-.072 0-.184-.488-.248-1.084-.064-.596-.174-1.083-.245-1.083-.072 0-.184-.694-.251-1.542-.066-.848-.178-1.579-.248-1.625-.255-.166-.5-6.78-.5-13.478V35.5l-1.291.024c-.711.013-2.296.088-3.524.166m7.559.887c-.176 1.405-.008 9.259.201 9.394.094.062.223.559.286 1.106.062.546.173 1.034.245 1.083.072.05.226.634.343 1.298.116.665.271 1.209.345 1.209.073 0 .182.262.242.583.06.321.171.583.247.583.076 0 .186.3.245.667.058.367.174.667.258.667.083 0 .201.225.261.5s.173.5.25.5c.077 0 .19.225.25.5s.177.5.26.5c.083 0 .197.187.255.416.057.23.171.417.253.417.082 0 .149.107.149.238s.093.337.208.458c.115.122.321.446.458.721.303.606.45.809 1.042 1.448.252.272.458.557.458.635 0 .078.225.366.5.641s.5.553.5.618c0 .154 2.774 2.908 2.93 2.908.066 0 .375.262.687.583.311.321.667.583.79.583s.268.113.32.25a.41.41 0 00.351.25c.141 0 .256.079.256.176 0 .096.225.253.5.349.275.096.5.242.5.325 0 .083.115.15.255.15s.297.108.347.24c.051.132.311.288.578.347.268.058.486.17.486.247 0 .077.225.189.5.25.275.06.5.173.5.25 0 .077.225.189.5.25.275.06.5.175.5.255 0 .081.263.195.584.256.32.06.583.166.583.236 0 .07.317.177.703.239.387.062.746.181.797.264.052.083.654.242 1.338.353.685.111 1.287.265 1.338.341.051.076.783.187 1.625.247.843.06 1.532.172 1.532.25 0 .078 1.5.142 3.334.142 1.833 0 3.333-.064 3.333-.142 0-.078.804-.194 1.787-.258.982-.063 1.826-.174 1.875-.247.048-.072.762-.224 1.585-.337.824-.113 1.536-.265 1.584-.338.047-.072.442-.184.877-.248.436-.065.792-.183.792-.263 0-.081.338-.197.75-.259s.75-.176.75-.253c0-.077.262-.189.583-.249.321-.061.584-.17.584-.245 0-.074.225-.184.5-.244.275-.061.5-.173.5-.25 0-.077.225-.19.5-.25.275-.061.5-.173.5-.25 0-.077.218-.189.486-.247.267-.059.524-.205.57-.325.046-.121.295-.272.554-.337.258-.065.508-.168.555-.23.125-.164 1.138-.861 1.253-.861.053 0 .271-.188.484-.417.212-.229.456-.417.541-.417.086 0 .34-.221.564-.493.225-.271.503-.496.617-.5.265-.009 2.873-2.625 2.883-2.891.004-.11.229-.383.5-.608.271-.225.493-.506.493-.625s.066-.216.147-.216c.18 0 1.519-2.03 1.519-2.303 0-.108.067-.197.149-.197.082 0 .196-.187.253-.417.058-.229.172-.416.255-.416.083 0 .2-.225.26-.5s.173-.5.25-.5c.077 0 .19-.225.25-.5s.169-.5.242-.5c.073 0 .18-.3.239-.667.058-.367.172-.667.252-.667.081 0 .199-.281.263-.625.065-.343.199-.724.299-.845.213-.258.378-2.815.222-3.437-.287-1.146-2.285-.362-2.525.991-.065.366-.174.741-.242.833-.068.092-.223.56-.343 1.042-.121.481-.275.875-.342.875s-.171.225-.232.5c-.06.275-.173.5-.25.5-.077 0-.188.218-.247.486-.058.267-.214.527-.346.578a.401.401 0 00-.24.347c0 .14-.067.255-.149.255-.081 0-.195.188-.253.417-.057.229-.178.417-.268.417a.162.162 0 00-.163.161c0 .239-1.356 2.172-1.524 2.172-.078 0-.143.107-.143.237s-.338.574-.75.987c-.412.412-.75.796-.75.853 0 .128-1.826 1.923-1.956 1.923-.052 0-.349.262-.66.583-.312.321-.642.584-.733.584-.092 0-.341.187-.553.416-.212.23-.446.417-.518.417-.073 0-.378.187-.678.417-.301.229-.626.416-.724.416-.098 0-.178.074-.178.164 0 .09-.187.21-.417.268-.229.057-.416.165-.416.24 0 .074-.225.185-.5.245s-.5.173-.5.25c0 .077-.225.19-.5.25s-.5.171-.5.245c0 .074-.263.184-.584.244-.321.06-.583.171-.583.246 0 .074-.394.221-.875.325-.481.104-1.285.302-1.786.44-.502.137-1.195.25-1.542.25s-.63.075-.63.167c0 .105-1.223.166-3.334.166-1.833 0-3.333-.06-3.333-.134 0-.074-.619-.217-1.375-.316-1.528-.201-3.679-.725-3.762-.916-.03-.068-.311-.171-.625-.23s-.571-.168-.571-.242c0-.074-.225-.185-.5-.245s-.5-.179-.5-.263c0-.085-.078-.154-.174-.154-.197 0-1.214-.685-1.299-.875-.03-.068-.129-.125-.219-.125-.228 0-1.307-.823-1.804-1.375-.226-.252-.476-.458-.553-.458-.175 0-.618-.431-.618-.6 0-.068-.338-.447-.75-.842-.413-.396-.75-.761-.75-.813 0-.052-.3-.546-.667-1.098-.366-.552-.666-1.074-.666-1.159a.155.155 0 00-.154-.155c-.084 0-.203-.225-.263-.5s-.173-.5-.25-.5c-.077 0-.19-.225-.25-.5s-.175-.5-.256-.5c-.08 0-.195-.262-.255-.583-.06-.321-.166-.583-.236-.583-.07 0-.175-.3-.234-.667-.058-.367-.17-.667-.247-.667-.078 0-.238-.565-.356-1.255s-.273-1.291-.344-1.335c-.071-.044-.181-.567-.245-1.161-.064-.595-.175-1.082-.248-1.082-.072 0-.179-.731-.238-1.625-.058-.894-.177-1.754-.264-1.912-.086-.158-.177-1.791-.201-3.629l-.043-3.341-.583-.162a5 5 0 00-1.115-.163c-.293-.001-.573-.068-.624-.15-.051-.082-.786-.203-1.635-.269-.848-.065-1.619-.181-1.713-.256-.094-.076-1.193-.191-2.443-.255l-2.273-.118-.12.957"/>
  </g>
</svg>